ISO-10303-21;
HEADER;
/* Generated by software containing ST-Developer
 * from STEP Tools, Inc. (www.steptools.com) 
 */

FILE_DESCRIPTION(
/* description */ (''),
/* implementation_level */ '2;1');

FILE_NAME(
/* name */ 'camplate.step',
/* time_stamp */ '2026-01-07T12:54:13+05:00',
/* author */ (''),
/* organization */ (''),
/* preprocessor_version */ 'ST-DEVELOPER v20.1',
/* originating_system */ 'Autodesk Translation Framework v14.21.0.0',
/* authorisation */ '');

FILE_SCHEMA (('AUTOMOTIVE_DESIGN { 1 0 10303 214 3 1 1 }'));
ENDSEC;

DATA;
#10=MECHANICAL_DESIGN_GEOMETRIC_PRESENTATION_REPRESENTATION('',(#13),#1443);
#11=SHAPE_REPRESENTATION_RELATIONSHIP('SRR','None',#1450,#12);
#12=ADVANCED_BREP_SHAPE_REPRESENTATION('',(#14),#1442);
#13=STYLED_ITEM('',(#1459),#14);
#14=MANIFOLD_SOLID_BREP('Body1',#895);
#15=FACE_BOUND('',#132,.T.);
#16=FACE_BOUND('',#133,.T.);
#17=FACE_BOUND('',#134,.T.);
#18=FACE_BOUND('',#135,.T.);
#19=FACE_BOUND('',#136,.T.);
#20=FACE_BOUND('',#137,.T.);
#21=FACE_BOUND('',#138,.T.);
#22=FACE_BOUND('',#139,.T.);
#23=FACE_BOUND('',#141,.T.);
#24=FACE_BOUND('',#142,.T.);
#25=FACE_BOUND('',#143,.T.);
#26=FACE_BOUND('',#144,.T.);
#27=FACE_BOUND('',#145,.T.);
#28=FACE_BOUND('',#146,.T.);
#29=FACE_BOUND('',#147,.T.);
#30=FACE_BOUND('',#148,.T.);
#31=FACE_BOUND('',#151,.T.);
#32=FACE_BOUND('',#155,.T.);
#33=FACE_BOUND('',#158,.T.);
#34=FACE_BOUND('',#166,.T.);
#35=CIRCLE('',#930,1.5);
#36=CIRCLE('',#931,1.5);
#37=CIRCLE('',#933,1.5);
#38=CIRCLE('',#934,1.5);
#39=CIRCLE('',#936,1.5);
#40=CIRCLE('',#937,1.5);
#41=CIRCLE('',#939,1.5);
#42=CIRCLE('',#940,1.5);
#43=CIRCLE('',#950,2.);
#44=CIRCLE('',#951,2.);
#45=CIRCLE('',#954,2.);
#46=CIRCLE('',#955,2.);
#47=CIRCLE('',#956,2.);
#48=CIRCLE('',#958,2.);
#49=CIRCLE('',#961,2.);
#50=CIRCLE('',#963,2.);
#51=CYLINDRICAL_SURFACE('',#929,1.5);
#52=CYLINDRICAL_SURFACE('',#932,1.5);
#53=CYLINDRICAL_SURFACE('',#935,1.5);
#54=CYLINDRICAL_SURFACE('',#938,1.5);
#55=CYLINDRICAL_SURFACE('',#949,2.);
#56=CYLINDRICAL_SURFACE('',#957,2.);
#57=CYLINDRICAL_SURFACE('',#960,2.);
#58=CYLINDRICAL_SURFACE('',#962,2.);
#59=FACE_OUTER_BOUND('',#103,.T.);
#60=FACE_OUTER_BOUND('',#104,.T.);
#61=FACE_OUTER_BOUND('',#105,.T.);
#62=FACE_OUTER_BOUND('',#106,.T.);
#63=FACE_OUTER_BOUND('',#107,.T.);
#64=FACE_OUTER_BOUND('',#108,.T.);
#65=FACE_OUTER_BOUND('',#109,.T.);
#66=FACE_OUTER_BOUND('',#110,.T.);
#67=FACE_OUTER_BOUND('',#111,.T.);
#68=FACE_OUTER_BOUND('',#112,.T.);
#69=FACE_OUTER_BOUND('',#113,.T.);
#70=FACE_OUTER_BOUND('',#114,.T.);
#71=FACE_OUTER_BOUND('',#115,.T.);
#72=FACE_OUTER_BOUND('',#116,.T.);
#73=FACE_OUTER_BOUND('',#117,.T.);
#74=FACE_OUTER_BOUND('',#118,.T.);
#75=FACE_OUTER_BOUND('',#119,.T.);
#76=FACE_OUTER_BOUND('',#120,.T.);
#77=FACE_OUTER_BOUND('',#121,.T.);
#78=FACE_OUTER_BOUND('',#122,.T.);
#79=FACE_OUTER_BOUND('',#123,.T.);
#80=FACE_OUTER_BOUND('',#124,.T.);
#81=FACE_OUTER_BOUND('',#125,.T.);
#82=FACE_OUTER_BOUND('',#126,.T.);
#83=FACE_OUTER_BOUND('',#127,.T.);
#84=FACE_OUTER_BOUND('',#128,.T.);
#85=FACE_OUTER_BOUND('',#129,.T.);
#86=FACE_OUTER_BOUND('',#130,.T.);
#87=FACE_OUTER_BOUND('',#131,.T.);
#88=FACE_OUTER_BOUND('',#140,.T.);
#89=FACE_OUTER_BOUND('',#149,.T.);
#90=FACE_OUTER_BOUND('',#150,.T.);
#91=FACE_OUTER_BOUND('',#152,.T.);
#92=FACE_OUTER_BOUND('',#153,.T.);
#93=FACE_OUTER_BOUND('',#154,.T.);
#94=FACE_OUTER_BOUND('',#156,.T.);
#95=FACE_OUTER_BOUND('',#157,.T.);
#96=FACE_OUTER_BOUND('',#159,.T.);
#97=FACE_OUTER_BOUND('',#160,.T.);
#98=FACE_OUTER_BOUND('',#161,.T.);
#99=FACE_OUTER_BOUND('',#162,.T.);
#100=FACE_OUTER_BOUND('',#163,.T.);
#101=FACE_OUTER_BOUND('',#164,.T.);
#102=FACE_OUTER_BOUND('',#165,.T.);
#103=EDGE_LOOP('',(#575,#576,#577,#578));
#104=EDGE_LOOP('',(#579,#580,#581,#582));
#105=EDGE_LOOP('',(#583,#584,#585,#586));
#106=EDGE_LOOP('',(#587,#588,#589,#590));
#107=EDGE_LOOP('',(#591,#592,#593,#594));
#108=EDGE_LOOP('',(#595,#596,#597,#598));
#109=EDGE_LOOP('',(#599,#600,#601,#602));
#110=EDGE_LOOP('',(#603,#604,#605,#606));
#111=EDGE_LOOP('',(#607,#608,#609,#610));
#112=EDGE_LOOP('',(#611,#612,#613,#614));
#113=EDGE_LOOP('',(#615,#616,#617,#618));
#114=EDGE_LOOP('',(#619,#620,#621,#622));
#115=EDGE_LOOP('',(#623,#624,#625,#626));
#116=EDGE_LOOP('',(#627,#628,#629,#630));
#117=EDGE_LOOP('',(#631,#632,#633,#634));
#118=EDGE_LOOP('',(#635,#636,#637,#638));
#119=EDGE_LOOP('',(#639,#640,#641,#642));
#120=EDGE_LOOP('',(#643,#644,#645,#646));
#121=EDGE_LOOP('',(#647,#648,#649,#650));
#122=EDGE_LOOP('',(#651,#652,#653,#654));
#123=EDGE_LOOP('',(#655,#656,#657,#658));
#124=EDGE_LOOP('',(#659,#660,#661,#662));
#125=EDGE_LOOP('',(#663,#664,#665,#666));
#126=EDGE_LOOP('',(#667,#668,#669,#670));
#127=EDGE_LOOP('',(#671,#672,#673,#674));
#128=EDGE_LOOP('',(#675,#676,#677,#678));
#129=EDGE_LOOP('',(#679,#680,#681,#682));
#130=EDGE_LOOP('',(#683,#684,#685,#686));
#131=EDGE_LOOP('',(#687,#688,#689,#690));
#132=EDGE_LOOP('',(#691,#692,#693,#694));
#133=EDGE_LOOP('',(#695,#696,#697,#698));
#134=EDGE_LOOP('',(#699,#700,#701,#702));
#135=EDGE_LOOP('',(#703,#704,#705,#706));
#136=EDGE_LOOP('',(#707));
#137=EDGE_LOOP('',(#708));
#138=EDGE_LOOP('',(#709));
#139=EDGE_LOOP('',(#710));
#140=EDGE_LOOP('',(#711,#712,#713,#714));
#141=EDGE_LOOP('',(#715,#716,#717,#718));
#142=EDGE_LOOP('',(#719,#720,#721,#722));
#143=EDGE_LOOP('',(#723,#724,#725,#726));
#144=EDGE_LOOP('',(#727,#728,#729,#730));
#145=EDGE_LOOP('',(#731));
#146=EDGE_LOOP('',(#732));
#147=EDGE_LOOP('',(#733));
#148=EDGE_LOOP('',(#734));
#149=EDGE_LOOP('',(#735,#736,#737,#738));
#150=EDGE_LOOP('',(#739,#740,#741,#742));
#151=EDGE_LOOP('',(#743,#744,#745,#746));
#152=EDGE_LOOP('',(#747,#748,#749,#750));
#153=EDGE_LOOP('',(#751,#752,#753,#754));
#154=EDGE_LOOP('',(#755,#756,#757,#758,#759,#760,#761,#762));
#155=EDGE_LOOP('',(#763,#764,#765,#766));
#156=EDGE_LOOP('',(#767,#768,#769,#770));
#157=EDGE_LOOP('',(#771,#772,#773,#774));
#158=EDGE_LOOP('',(#775,#776,#777,#778));
#159=EDGE_LOOP('',(#779,#780,#781,#782));
#160=EDGE_LOOP('',(#783,#784,#785,#786));
#161=EDGE_LOOP('',(#787,#788,#789,#790));
#162=EDGE_LOOP('',(#791,#792,#793,#794));
#163=EDGE_LOOP('',(#795,#796,#797,#798));
#164=EDGE_LOOP('',(#799,#800,#801,#802));
#165=EDGE_LOOP('',(#803,#804,#805,#806,#807,#808,#809,#810));
#166=EDGE_LOOP('',(#811,#812,#813,#814));
#167=LINE('',#1199,#271);
#168=LINE('',#1201,#272);
#169=LINE('',#1203,#273);
#170=LINE('',#1204,#274);
#171=LINE('',#1207,#275);
#172=LINE('',#1209,#276);
#173=LINE('',#1210,#277);
#174=LINE('',#1213,#278);
#175=LINE('',#1215,#279);
#176=LINE('',#1216,#280);
#177=LINE('',#1218,#281);
#178=LINE('',#1219,#282);
#179=LINE('',#1223,#283);
#180=LINE('',#1225,#284);
#181=LINE('',#1227,#285);
#182=LINE('',#1228,#286);
#183=LINE('',#1231,#287);
#184=LINE('',#1233,#288);
#185=LINE('',#1234,#289);
#186=LINE('',#1237,#290);
#187=LINE('',#1239,#291);
#188=LINE('',#1240,#292);
#189=LINE('',#1242,#293);
#190=LINE('',#1243,#294);
#191=LINE('',#1247,#295);
#192=LINE('',#1249,#296);
#193=LINE('',#1251,#297);
#194=LINE('',#1252,#298);
#195=LINE('',#1255,#299);
#196=LINE('',#1257,#300);
#197=LINE('',#1258,#301);
#198=LINE('',#1261,#302);
#199=LINE('',#1263,#303);
#200=LINE('',#1264,#304);
#201=LINE('',#1266,#305);
#202=LINE('',#1267,#306);
#203=LINE('',#1271,#307);
#204=LINE('',#1273,#308);
#205=LINE('',#1275,#309);
#206=LINE('',#1276,#310);
#207=LINE('',#1279,#311);
#208=LINE('',#1281,#312);
#209=LINE('',#1282,#313);
#210=LINE('',#1285,#314);
#211=LINE('',#1287,#315);
#212=LINE('',#1288,#316);
#213=LINE('',#1290,#317);
#214=LINE('',#1291,#318);
#215=LINE('',#1295,#319);
#216=LINE('',#1297,#320);
#217=LINE('',#1299,#321);
#218=LINE('',#1300,#322);
#219=LINE('',#1303,#323);
#220=LINE('',#1305,#324);
#221=LINE('',#1306,#325);
#222=LINE('',#1309,#326);
#223=LINE('',#1311,#327);
#224=LINE('',#1312,#328);
#225=LINE('',#1314,#329);
#226=LINE('',#1315,#330);
#227=LINE('',#1320,#331);
#228=LINE('',#1326,#332);
#229=LINE('',#1332,#333);
#230=LINE('',#1338,#334);
#231=LINE('',#1343,#335);
#232=LINE('',#1345,#336);
#233=LINE('',#1347,#337);
#234=LINE('',#1348,#338);
#235=LINE('',#1351,#339);
#236=LINE('',#1353,#340);
#237=LINE('',#1354,#341);
#238=LINE('',#1357,#342);
#239=LINE('',#1359,#343);
#240=LINE('',#1360,#344);
#241=LINE('',#1362,#345);
#242=LINE('',#1363,#346);
#243=LINE('',#1368,#347);
#244=LINE('',#1370,#348);
#245=LINE('',#1372,#349);
#246=LINE('',#1373,#350);
#247=LINE('',#1376,#351);
#248=LINE('',#1378,#352);
#249=LINE('',#1379,#353);
#250=LINE('',#1382,#354);
#251=LINE('',#1383,#355);
#252=LINE('',#1389,#356);
#253=LINE('',#1392,#357);
#254=LINE('',#1395,#358);
#255=LINE('',#1397,#359);
#256=LINE('',#1398,#360);
#257=LINE('',#1401,#361);
#258=LINE('',#1405,#362);
#259=LINE('',#1409,#363);
#260=LINE('',#1415,#364);
#261=LINE('',#1416,#365);
#262=LINE('',#1419,#366);
#263=LINE('',#1420,#367);
#264=LINE('',#1424,#368);
#265=LINE('',#1428,#369);
#266=LINE('',#1431,#370);
#267=LINE('',#1432,#371);
#268=LINE('',#1434,#372);
#269=LINE('',#1436,#373);
#270=LINE('',#1438,#374);
#271=VECTOR('',#973,10.);
#272=VECTOR('',#974,10.);
#273=VECTOR('',#975,10.);
#274=VECTOR('',#976,10.);
#275=VECTOR('',#979,10.);
#276=VECTOR('',#980,10.);
#277=VECTOR('',#981,10.);
#278=VECTOR('',#984,10.);
#279=VECTOR('',#985,10.);
#280=VECTOR('',#986,10.);
#281=VECTOR('',#989,10.);
#282=VECTOR('',#990,10.);
#283=VECTOR('',#993,10.);
#284=VECTOR('',#994,10.);
#285=VECTOR('',#995,10.);
#286=VECTOR('',#996,10.);
#287=VECTOR('',#999,10.);
#288=VECTOR('',#1000,10.);
#289=VECTOR('',#1001,10.);
#290=VECTOR('',#1004,10.);
#291=VECTOR('',#1005,10.);
#292=VECTOR('',#1006,10.);
#293=VECTOR('',#1009,10.);
#294=VECTOR('',#1010,10.);
#295=VECTOR('',#1013,10.);
#296=VECTOR('',#1014,10.);
#297=VECTOR('',#1015,10.);
#298=VECTOR('',#1016,10.);
#299=VECTOR('',#1019,10.);
#300=VECTOR('',#1020,10.);
#301=VECTOR('',#1021,10.);
#302=VECTOR('',#1024,10.);
#303=VECTOR('',#1025,10.);
#304=VECTOR('',#1026,10.);
#305=VECTOR('',#1029,10.);
#306=VECTOR('',#1030,10.);
#307=VECTOR('',#1033,10.);
#308=VECTOR('',#1034,10.);
#309=VECTOR('',#1035,10.);
#310=VECTOR('',#1036,10.);
#311=VECTOR('',#1039,10.);
#312=VECTOR('',#1040,10.);
#313=VECTOR('',#1041,10.);
#314=VECTOR('',#1044,10.);
#315=VECTOR('',#1045,10.);
#316=VECTOR('',#1046,10.);
#317=VECTOR('',#1049,10.);
#318=VECTOR('',#1050,10.);
#319=VECTOR('',#1053,10.);
#320=VECTOR('',#1054,10.);
#321=VECTOR('',#1055,10.);
#322=VECTOR('',#1056,10.);
#323=VECTOR('',#1059,10.);
#324=VECTOR('',#1060,10.);
#325=VECTOR('',#1061,10.);
#326=VECTOR('',#1064,10.);
#327=VECTOR('',#1065,10.);
#328=VECTOR('',#1066,10.);
#329=VECTOR('',#1069,10.);
#330=VECTOR('',#1070,10.);
#331=VECTOR('',#1075,1.5);
#332=VECTOR('',#1082,1.5);
#333=VECTOR('',#1089,1.5);
#334=VECTOR('',#1096,1.5);
#335=VECTOR('',#1101,10.);
#336=VECTOR('',#1102,10.);
#337=VECTOR('',#1103,10.);
#338=VECTOR('',#1104,10.);
#339=VECTOR('',#1107,10.);
#340=VECTOR('',#1108,10.);
#341=VECTOR('',#1109,10.);
#342=VECTOR('',#1112,10.);
#343=VECTOR('',#1113,10.);
#344=VECTOR('',#1114,10.);
#345=VECTOR('',#1117,10.);
#346=VECTOR('',#1118,10.);
#347=VECTOR('',#1123,10.);
#348=VECTOR('',#1124,10.);
#349=VECTOR('',#1125,10.);
#350=VECTOR('',#1126,10.);
#351=VECTOR('',#1129,10.);
#352=VECTOR('',#1130,10.);
#353=VECTOR('',#1131,10.);
#354=VECTOR('',#1134,10.);
#355=VECTOR('',#1135,10.);
#356=VECTOR('',#1140,10.);
#357=VECTOR('',#1143,10.);
#358=VECTOR('',#1146,10.);
#359=VECTOR('',#1147,10.);
#360=VECTOR('',#1148,10.);
#361=VECTOR('',#1151,10.);
#362=VECTOR('',#1154,10.);
#363=VECTOR('',#1157,10.);
#364=VECTOR('',#1164,10.);
#365=VECTOR('',#1165,10.);
#366=VECTOR('',#1168,10.);
#367=VECTOR('',#1169,10.);
#368=VECTOR('',#1174,10.);
#369=VECTOR('',#1179,10.);
#370=VECTOR('',#1182,10.);
#371=VECTOR('',#1183,10.);
#372=VECTOR('',#1186,10.);
#373=VECTOR('',#1189,10.);
#374=VECTOR('',#1192,10.);
#375=VERTEX_POINT('',#1197);
#376=VERTEX_POINT('',#1198);
#377=VERTEX_POINT('',#1200);
#378=VERTEX_POINT('',#1202);
#379=VERTEX_POINT('',#1206);
#380=VERTEX_POINT('',#1208);
#381=VERTEX_POINT('',#1212);
#382=VERTEX_POINT('',#1214);
#383=VERTEX_POINT('',#1221);
#384=VERTEX_POINT('',#1222);
#385=VERTEX_POINT('',#1224);
#386=VERTEX_POINT('',#1226);
#387=VERTEX_POINT('',#1230);
#388=VERTEX_POINT('',#1232);
#389=VERTEX_POINT('',#1236);
#390=VERTEX_POINT('',#1238);
#391=VERTEX_POINT('',#1245);
#392=VERTEX_POINT('',#1246);
#393=VERTEX_POINT('',#1248);
#394=VERTEX_POINT('',#1250);
#395=VERTEX_POINT('',#1254);
#396=VERTEX_POINT('',#1256);
#397=VERTEX_POINT('',#1260);
#398=VERTEX_POINT('',#1262);
#399=VERTEX_POINT('',#1269);
#400=VERTEX_POINT('',#1270);
#401=VERTEX_POINT('',#1272);
#402=VERTEX_POINT('',#1274);
#403=VERTEX_POINT('',#1278);
#404=VERTEX_POINT('',#1280);
#405=VERTEX_POINT('',#1284);
#406=VERTEX_POINT('',#1286);
#407=VERTEX_POINT('',#1293);
#408=VERTEX_POINT('',#1294);
#409=VERTEX_POINT('',#1296);
#410=VERTEX_POINT('',#1298);
#411=VERTEX_POINT('',#1302);
#412=VERTEX_POINT('',#1304);
#413=VERTEX_POINT('',#1308);
#414=VERTEX_POINT('',#1310);
#415=VERTEX_POINT('',#1317);
#416=VERTEX_POINT('',#1319);
#417=VERTEX_POINT('',#1323);
#418=VERTEX_POINT('',#1325);
#419=VERTEX_POINT('',#1329);
#420=VERTEX_POINT('',#1331);
#421=VERTEX_POINT('',#1335);
#422=VERTEX_POINT('',#1337);
#423=VERTEX_POINT('',#1341);
#424=VERTEX_POINT('',#1342);
#425=VERTEX_POINT('',#1344);
#426=VERTEX_POINT('',#1346);
#427=VERTEX_POINT('',#1350);
#428=VERTEX_POINT('',#1352);
#429=VERTEX_POINT('',#1356);
#430=VERTEX_POINT('',#1358);
#431=VERTEX_POINT('',#1366);
#432=VERTEX_POINT('',#1367);
#433=VERTEX_POINT('',#1369);
#434=VERTEX_POINT('',#1371);
#435=VERTEX_POINT('',#1375);
#436=VERTEX_POINT('',#1377);
#437=VERTEX_POINT('',#1381);
#438=VERTEX_POINT('',#1385);
#439=VERTEX_POINT('',#1386);
#440=VERTEX_POINT('',#1388);
#441=VERTEX_POINT('',#1390);
#442=VERTEX_POINT('',#1394);
#443=VERTEX_POINT('',#1396);
#444=VERTEX_POINT('',#1400);
#445=VERTEX_POINT('',#1402);
#446=VERTEX_POINT('',#1404);
#447=VERTEX_POINT('',#1406);
#448=VERTEX_POINT('',#1408);
#449=VERTEX_POINT('',#1412);
#450=VERTEX_POINT('',#1413);
#451=VERTEX_POINT('',#1418);
#452=VERTEX_POINT('',#1422);
#453=VERTEX_POINT('',#1426);
#454=VERTEX_POINT('',#1430);
#455=EDGE_CURVE('',#375,#376,#167,.T.);
#456=EDGE_CURVE('',#377,#375,#168,.T.);
#457=EDGE_CURVE('',#378,#377,#169,.T.);
#458=EDGE_CURVE('',#378,#376,#170,.T.);
#459=EDGE_CURVE('',#376,#379,#171,.T.);
#460=EDGE_CURVE('',#380,#378,#172,.T.);
#461=EDGE_CURVE('',#380,#379,#173,.T.);
#462=EDGE_CURVE('',#379,#381,#174,.T.);
#463=EDGE_CURVE('',#382,#380,#175,.T.);
#464=EDGE_CURVE('',#382,#381,#176,.T.);
#465=EDGE_CURVE('',#381,#375,#177,.T.);
#466=EDGE_CURVE('',#377,#382,#178,.T.);
#467=EDGE_CURVE('',#383,#384,#179,.T.);
#468=EDGE_CURVE('',#385,#383,#180,.T.);
#469=EDGE_CURVE('',#386,#385,#181,.T.);
#470=EDGE_CURVE('',#386,#384,#182,.T.);
#471=EDGE_CURVE('',#384,#387,#183,.T.);
#472=EDGE_CURVE('',#388,#386,#184,.T.);
#473=EDGE_CURVE('',#388,#387,#185,.T.);
#474=EDGE_CURVE('',#387,#389,#186,.T.);
#475=EDGE_CURVE('',#390,#388,#187,.T.);
#476=EDGE_CURVE('',#390,#389,#188,.T.);
#477=EDGE_CURVE('',#389,#383,#189,.T.);
#478=EDGE_CURVE('',#385,#390,#190,.T.);
#479=EDGE_CURVE('',#391,#392,#191,.T.);
#480=EDGE_CURVE('',#393,#391,#192,.T.);
#481=EDGE_CURVE('',#394,#393,#193,.T.);
#482=EDGE_CURVE('',#394,#392,#194,.T.);
#483=EDGE_CURVE('',#392,#395,#195,.T.);
#484=EDGE_CURVE('',#396,#394,#196,.T.);
#485=EDGE_CURVE('',#396,#395,#197,.T.);
#486=EDGE_CURVE('',#395,#397,#198,.T.);
#487=EDGE_CURVE('',#398,#396,#199,.T.);
#488=EDGE_CURVE('',#398,#397,#200,.T.);
#489=EDGE_CURVE('',#397,#391,#201,.T.);
#490=EDGE_CURVE('',#393,#398,#202,.T.);
#491=EDGE_CURVE('',#399,#400,#203,.T.);
#492=EDGE_CURVE('',#401,#399,#204,.T.);
#493=EDGE_CURVE('',#402,#401,#205,.T.);
#494=EDGE_CURVE('',#402,#400,#206,.T.);
#495=EDGE_CURVE('',#400,#403,#207,.T.);
#496=EDGE_CURVE('',#404,#402,#208,.T.);
#497=EDGE_CURVE('',#404,#403,#209,.T.);
#498=EDGE_CURVE('',#403,#405,#210,.T.);
#499=EDGE_CURVE('',#406,#404,#211,.T.);
#500=EDGE_CURVE('',#406,#405,#212,.T.);
#501=EDGE_CURVE('',#405,#399,#213,.T.);
#502=EDGE_CURVE('',#401,#406,#214,.T.);
#503=EDGE_CURVE('',#407,#408,#215,.T.);
#504=EDGE_CURVE('',#409,#407,#216,.T.);
#505=EDGE_CURVE('',#410,#409,#217,.T.);
#506=EDGE_CURVE('',#410,#408,#218,.T.);
#507=EDGE_CURVE('',#408,#411,#219,.T.);
#508=EDGE_CURVE('',#412,#410,#220,.T.);
#509=EDGE_CURVE('',#412,#411,#221,.T.);
#510=EDGE_CURVE('',#411,#413,#222,.T.);
#511=EDGE_CURVE('',#414,#412,#223,.T.);
#512=EDGE_CURVE('',#414,#413,#224,.T.);
#513=EDGE_CURVE('',#413,#407,#225,.T.);
#514=EDGE_CURVE('',#409,#414,#226,.T.);
#515=EDGE_CURVE('',#415,#415,#35,.T.);
#516=EDGE_CURVE('',#415,#416,#227,.T.);
#517=EDGE_CURVE('',#416,#416,#36,.T.);
#518=EDGE_CURVE('',#417,#417,#37,.T.);
#519=EDGE_CURVE('',#417,#418,#228,.T.);
#520=EDGE_CURVE('',#418,#418,#38,.T.);
#521=EDGE_CURVE('',#419,#419,#39,.T.);
#522=EDGE_CURVE('',#419,#420,#229,.T.);
#523=EDGE_CURVE('',#420,#420,#40,.T.);
#524=EDGE_CURVE('',#421,#421,#41,.T.);
#525=EDGE_CURVE('',#421,#422,#230,.T.);
#526=EDGE_CURVE('',#422,#422,#42,.T.);
#527=EDGE_CURVE('',#423,#424,#231,.T.);
#528=EDGE_CURVE('',#423,#425,#232,.T.);
#529=EDGE_CURVE('',#426,#425,#233,.T.);
#530=EDGE_CURVE('',#424,#426,#234,.T.);
#531=EDGE_CURVE('',#424,#427,#235,.T.);
#532=EDGE_CURVE('',#428,#426,#236,.T.);
#533=EDGE_CURVE('',#427,#428,#237,.T.);
#534=EDGE_CURVE('',#427,#429,#238,.T.);
#535=EDGE_CURVE('',#430,#428,#239,.T.);
#536=EDGE_CURVE('',#429,#430,#240,.T.);
#537=EDGE_CURVE('',#429,#423,#241,.T.);
#538=EDGE_CURVE('',#425,#430,#242,.T.);
#539=EDGE_CURVE('',#431,#432,#243,.T.);
#540=EDGE_CURVE('',#433,#431,#244,.T.);
#541=EDGE_CURVE('',#434,#433,#245,.T.);
#542=EDGE_CURVE('',#432,#434,#246,.T.);
#543=EDGE_CURVE('',#434,#435,#247,.T.);
#544=EDGE_CURVE('',#436,#435,#248,.T.);
#545=EDGE_CURVE('',#432,#436,#249,.T.);
#546=EDGE_CURVE('',#433,#437,#250,.T.);
#547=EDGE_CURVE('',#435,#437,#251,.T.);
#548=EDGE_CURVE('',#438,#439,#43,.T.);
#549=EDGE_CURVE('',#439,#440,#252,.T.);
#550=EDGE_CURVE('',#440,#441,#44,.T.);
#551=EDGE_CURVE('',#441,#438,#253,.T.);
#552=EDGE_CURVE('',#442,#441,#254,.T.);
#553=EDGE_CURVE('',#443,#442,#255,.T.);
#554=EDGE_CURVE('',#438,#443,#256,.T.);
#555=EDGE_CURVE('',#440,#444,#257,.T.);
#556=EDGE_CURVE('',#445,#444,#45,.T.);
#557=EDGE_CURVE('',#445,#446,#258,.T.);
#558=EDGE_CURVE('',#447,#446,#46,.T.);
#559=EDGE_CURVE('',#447,#448,#259,.T.);
#560=EDGE_CURVE('',#442,#448,#47,.T.);
#561=EDGE_CURVE('',#449,#450,#48,.T.);
#562=EDGE_CURVE('',#450,#445,#260,.T.);
#563=EDGE_CURVE('',#444,#449,#261,.T.);
#564=EDGE_CURVE('',#451,#450,#262,.T.);
#565=EDGE_CURVE('',#446,#451,#263,.T.);
#566=EDGE_CURVE('',#451,#452,#49,.T.);
#567=EDGE_CURVE('',#452,#447,#264,.T.);
#568=EDGE_CURVE('',#453,#443,#50,.T.);
#569=EDGE_CURVE('',#448,#453,#265,.T.);
#570=EDGE_CURVE('',#454,#436,#266,.T.);
#571=EDGE_CURVE('',#431,#454,#267,.T.);
#572=EDGE_CURVE('',#437,#454,#268,.T.);
#573=EDGE_CURVE('',#453,#452,#269,.T.);
#574=EDGE_CURVE('',#449,#439,#270,.T.);
#575=ORIENTED_EDGE('',*,*,#455,.F.);
#576=ORIENTED_EDGE('',*,*,#456,.F.);
#577=ORIENTED_EDGE('',*,*,#457,.F.);
#578=ORIENTED_EDGE('',*,*,#458,.T.);
#579=ORIENTED_EDGE('',*,*,#459,.F.);
#580=ORIENTED_EDGE('',*,*,#458,.F.);
#581=ORIENTED_EDGE('',*,*,#460,.F.);
#582=ORIENTED_EDGE('',*,*,#461,.T.);
#583=ORIENTED_EDGE('',*,*,#462,.F.);
#584=ORIENTED_EDGE('',*,*,#461,.F.);
#585=ORIENTED_EDGE('',*,*,#463,.F.);
#586=ORIENTED_EDGE('',*,*,#464,.T.);
#587=ORIENTED_EDGE('',*,*,#465,.F.);
#588=ORIENTED_EDGE('',*,*,#464,.F.);
#589=ORIENTED_EDGE('',*,*,#466,.F.);
#590=ORIENTED_EDGE('',*,*,#456,.T.);
#591=ORIENTED_EDGE('',*,*,#467,.F.);
#592=ORIENTED_EDGE('',*,*,#468,.F.);
#593=ORIENTED_EDGE('',*,*,#469,.F.);
#594=ORIENTED_EDGE('',*,*,#470,.T.);
#595=ORIENTED_EDGE('',*,*,#471,.F.);
#596=ORIENTED_EDGE('',*,*,#470,.F.);
#597=ORIENTED_EDGE('',*,*,#472,.F.);
#598=ORIENTED_EDGE('',*,*,#473,.T.);
#599=ORIENTED_EDGE('',*,*,#474,.F.);
#600=ORIENTED_EDGE('',*,*,#473,.F.);
#601=ORIENTED_EDGE('',*,*,#475,.F.);
#602=ORIENTED_EDGE('',*,*,#476,.T.);
#603=ORIENTED_EDGE('',*,*,#477,.F.);
#604=ORIENTED_EDGE('',*,*,#476,.F.);
#605=ORIENTED_EDGE('',*,*,#478,.F.);
#606=ORIENTED_EDGE('',*,*,#468,.T.);
#607=ORIENTED_EDGE('',*,*,#479,.F.);
#608=ORIENTED_EDGE('',*,*,#480,.F.);
#609=ORIENTED_EDGE('',*,*,#481,.F.);
#610=ORIENTED_EDGE('',*,*,#482,.T.);
#611=ORIENTED_EDGE('',*,*,#483,.F.);
#612=ORIENTED_EDGE('',*,*,#482,.F.);
#613=ORIENTED_EDGE('',*,*,#484,.F.);
#614=ORIENTED_EDGE('',*,*,#485,.T.);
#615=ORIENTED_EDGE('',*,*,#486,.F.);
#616=ORIENTED_EDGE('',*,*,#485,.F.);
#617=ORIENTED_EDGE('',*,*,#487,.F.);
#618=ORIENTED_EDGE('',*,*,#488,.T.);
#619=ORIENTED_EDGE('',*,*,#489,.F.);
#620=ORIENTED_EDGE('',*,*,#488,.F.);
#621=ORIENTED_EDGE('',*,*,#490,.F.);
#622=ORIENTED_EDGE('',*,*,#480,.T.);
#623=ORIENTED_EDGE('',*,*,#491,.F.);
#624=ORIENTED_EDGE('',*,*,#492,.F.);
#625=ORIENTED_EDGE('',*,*,#493,.F.);
#626=ORIENTED_EDGE('',*,*,#494,.T.);
#627=ORIENTED_EDGE('',*,*,#495,.F.);
#628=ORIENTED_EDGE('',*,*,#494,.F.);
#629=ORIENTED_EDGE('',*,*,#496,.F.);
#630=ORIENTED_EDGE('',*,*,#497,.T.);
#631=ORIENTED_EDGE('',*,*,#498,.F.);
#632=ORIENTED_EDGE('',*,*,#497,.F.);
#633=ORIENTED_EDGE('',*,*,#499,.F.);
#634=ORIENTED_EDGE('',*,*,#500,.T.);
#635=ORIENTED_EDGE('',*,*,#501,.F.);
#636=ORIENTED_EDGE('',*,*,#500,.F.);
#637=ORIENTED_EDGE('',*,*,#502,.F.);
#638=ORIENTED_EDGE('',*,*,#492,.T.);
#639=ORIENTED_EDGE('',*,*,#503,.F.);
#640=ORIENTED_EDGE('',*,*,#504,.F.);
#641=ORIENTED_EDGE('',*,*,#505,.F.);
#642=ORIENTED_EDGE('',*,*,#506,.T.);
#643=ORIENTED_EDGE('',*,*,#507,.F.);
#644=ORIENTED_EDGE('',*,*,#506,.F.);
#645=ORIENTED_EDGE('',*,*,#508,.F.);
#646=ORIENTED_EDGE('',*,*,#509,.T.);
#647=ORIENTED_EDGE('',*,*,#510,.F.);
#648=ORIENTED_EDGE('',*,*,#509,.F.);
#649=ORIENTED_EDGE('',*,*,#511,.F.);
#650=ORIENTED_EDGE('',*,*,#512,.T.);
#651=ORIENTED_EDGE('',*,*,#513,.F.);
#652=ORIENTED_EDGE('',*,*,#512,.F.);
#653=ORIENTED_EDGE('',*,*,#514,.F.);
#654=ORIENTED_EDGE('',*,*,#504,.T.);
#655=ORIENTED_EDGE('',*,*,#515,.F.);
#656=ORIENTED_EDGE('',*,*,#516,.T.);
#657=ORIENTED_EDGE('',*,*,#517,.F.);
#658=ORIENTED_EDGE('',*,*,#516,.F.);
#659=ORIENTED_EDGE('',*,*,#518,.F.);
#660=ORIENTED_EDGE('',*,*,#519,.T.);
#661=ORIENTED_EDGE('',*,*,#520,.F.);
#662=ORIENTED_EDGE('',*,*,#519,.F.);
#663=ORIENTED_EDGE('',*,*,#521,.F.);
#664=ORIENTED_EDGE('',*,*,#522,.T.);
#665=ORIENTED_EDGE('',*,*,#523,.F.);
#666=ORIENTED_EDGE('',*,*,#522,.F.);
#667=ORIENTED_EDGE('',*,*,#524,.F.);
#668=ORIENTED_EDGE('',*,*,#525,.T.);
#669=ORIENTED_EDGE('',*,*,#526,.F.);
#670=ORIENTED_EDGE('',*,*,#525,.F.);
#671=ORIENTED_EDGE('',*,*,#527,.F.);
#672=ORIENTED_EDGE('',*,*,#528,.T.);
#673=ORIENTED_EDGE('',*,*,#529,.F.);
#674=ORIENTED_EDGE('',*,*,#530,.F.);
#675=ORIENTED_EDGE('',*,*,#531,.F.);
#676=ORIENTED_EDGE('',*,*,#530,.T.);
#677=ORIENTED_EDGE('',*,*,#532,.F.);
#678=ORIENTED_EDGE('',*,*,#533,.F.);
#679=ORIENTED_EDGE('',*,*,#534,.F.);
#680=ORIENTED_EDGE('',*,*,#533,.T.);
#681=ORIENTED_EDGE('',*,*,#535,.F.);
#682=ORIENTED_EDGE('',*,*,#536,.F.);
#683=ORIENTED_EDGE('',*,*,#537,.F.);
#684=ORIENTED_EDGE('',*,*,#536,.T.);
#685=ORIENTED_EDGE('',*,*,#538,.F.);
#686=ORIENTED_EDGE('',*,*,#528,.F.);
#687=ORIENTED_EDGE('',*,*,#538,.T.);
#688=ORIENTED_EDGE('',*,*,#535,.T.);
#689=ORIENTED_EDGE('',*,*,#532,.T.);
#690=ORIENTED_EDGE('',*,*,#529,.T.);
#691=ORIENTED_EDGE('',*,*,#462,.T.);
#692=ORIENTED_EDGE('',*,*,#465,.T.);
#693=ORIENTED_EDGE('',*,*,#455,.T.);
#694=ORIENTED_EDGE('',*,*,#459,.T.);
#695=ORIENTED_EDGE('',*,*,#474,.T.);
#696=ORIENTED_EDGE('',*,*,#477,.T.);
#697=ORIENTED_EDGE('',*,*,#467,.T.);
#698=ORIENTED_EDGE('',*,*,#471,.T.);
#699=ORIENTED_EDGE('',*,*,#486,.T.);
#700=ORIENTED_EDGE('',*,*,#489,.T.);
#701=ORIENTED_EDGE('',*,*,#479,.T.);
#702=ORIENTED_EDGE('',*,*,#483,.T.);
#703=ORIENTED_EDGE('',*,*,#498,.T.);
#704=ORIENTED_EDGE('',*,*,#501,.T.);
#705=ORIENTED_EDGE('',*,*,#491,.T.);
#706=ORIENTED_EDGE('',*,*,#495,.T.);
#707=ORIENTED_EDGE('',*,*,#517,.T.);
#708=ORIENTED_EDGE('',*,*,#520,.T.);
#709=ORIENTED_EDGE('',*,*,#523,.T.);
#710=ORIENTED_EDGE('',*,*,#526,.T.);
#711=ORIENTED_EDGE('',*,*,#539,.F.);
#712=ORIENTED_EDGE('',*,*,#540,.F.);
#713=ORIENTED_EDGE('',*,*,#541,.F.);
#714=ORIENTED_EDGE('',*,*,#542,.F.);
#715=ORIENTED_EDGE('',*,*,#463,.T.);
#716=ORIENTED_EDGE('',*,*,#460,.T.);
#717=ORIENTED_EDGE('',*,*,#457,.T.);
#718=ORIENTED_EDGE('',*,*,#466,.T.);
#719=ORIENTED_EDGE('',*,*,#475,.T.);
#720=ORIENTED_EDGE('',*,*,#472,.T.);
#721=ORIENTED_EDGE('',*,*,#469,.T.);
#722=ORIENTED_EDGE('',*,*,#478,.T.);
#723=ORIENTED_EDGE('',*,*,#487,.T.);
#724=ORIENTED_EDGE('',*,*,#484,.T.);
#725=ORIENTED_EDGE('',*,*,#481,.T.);
#726=ORIENTED_EDGE('',*,*,#490,.T.);
#727=ORIENTED_EDGE('',*,*,#499,.T.);
#728=ORIENTED_EDGE('',*,*,#496,.T.);
#729=ORIENTED_EDGE('',*,*,#493,.T.);
#730=ORIENTED_EDGE('',*,*,#502,.T.);
#731=ORIENTED_EDGE('',*,*,#515,.T.);
#732=ORIENTED_EDGE('',*,*,#518,.T.);
#733=ORIENTED_EDGE('',*,*,#521,.T.);
#734=ORIENTED_EDGE('',*,*,#524,.T.);
#735=ORIENTED_EDGE('',*,*,#542,.T.);
#736=ORIENTED_EDGE('',*,*,#543,.T.);
#737=ORIENTED_EDGE('',*,*,#544,.F.);
#738=ORIENTED_EDGE('',*,*,#545,.F.);
#739=ORIENTED_EDGE('',*,*,#541,.T.);
#740=ORIENTED_EDGE('',*,*,#546,.T.);
#741=ORIENTED_EDGE('',*,*,#547,.F.);
#742=ORIENTED_EDGE('',*,*,#543,.F.);
#743=ORIENTED_EDGE('',*,*,#510,.T.);
#744=ORIENTED_EDGE('',*,*,#513,.T.);
#745=ORIENTED_EDGE('',*,*,#503,.T.);
#746=ORIENTED_EDGE('',*,*,#507,.T.);
#747=ORIENTED_EDGE('',*,*,#548,.T.);
#748=ORIENTED_EDGE('',*,*,#549,.T.);
#749=ORIENTED_EDGE('',*,*,#550,.T.);
#750=ORIENTED_EDGE('',*,*,#551,.T.);
#751=ORIENTED_EDGE('',*,*,#551,.F.);
#752=ORIENTED_EDGE('',*,*,#552,.F.);
#753=ORIENTED_EDGE('',*,*,#553,.F.);
#754=ORIENTED_EDGE('',*,*,#554,.F.);
#755=ORIENTED_EDGE('',*,*,#550,.F.);
#756=ORIENTED_EDGE('',*,*,#555,.T.);
#757=ORIENTED_EDGE('',*,*,#556,.F.);
#758=ORIENTED_EDGE('',*,*,#557,.T.);
#759=ORIENTED_EDGE('',*,*,#558,.F.);
#760=ORIENTED_EDGE('',*,*,#559,.T.);
#761=ORIENTED_EDGE('',*,*,#560,.F.);
#762=ORIENTED_EDGE('',*,*,#552,.T.);
#763=ORIENTED_EDGE('',*,*,#527,.T.);
#764=ORIENTED_EDGE('',*,*,#531,.T.);
#765=ORIENTED_EDGE('',*,*,#534,.T.);
#766=ORIENTED_EDGE('',*,*,#537,.T.);
#767=ORIENTED_EDGE('',*,*,#561,.T.);
#768=ORIENTED_EDGE('',*,*,#562,.T.);
#769=ORIENTED_EDGE('',*,*,#556,.T.);
#770=ORIENTED_EDGE('',*,*,#563,.T.);
#771=ORIENTED_EDGE('',*,*,#562,.F.);
#772=ORIENTED_EDGE('',*,*,#564,.F.);
#773=ORIENTED_EDGE('',*,*,#565,.F.);
#774=ORIENTED_EDGE('',*,*,#557,.F.);
#775=ORIENTED_EDGE('',*,*,#511,.T.);
#776=ORIENTED_EDGE('',*,*,#508,.T.);
#777=ORIENTED_EDGE('',*,*,#505,.T.);
#778=ORIENTED_EDGE('',*,*,#514,.T.);
#779=ORIENTED_EDGE('',*,*,#566,.T.);
#780=ORIENTED_EDGE('',*,*,#567,.T.);
#781=ORIENTED_EDGE('',*,*,#558,.T.);
#782=ORIENTED_EDGE('',*,*,#565,.T.);
#783=ORIENTED_EDGE('',*,*,#568,.T.);
#784=ORIENTED_EDGE('',*,*,#553,.T.);
#785=ORIENTED_EDGE('',*,*,#560,.T.);
#786=ORIENTED_EDGE('',*,*,#569,.T.);
#787=ORIENTED_EDGE('',*,*,#539,.T.);
#788=ORIENTED_EDGE('',*,*,#545,.T.);
#789=ORIENTED_EDGE('',*,*,#570,.F.);
#790=ORIENTED_EDGE('',*,*,#571,.F.);
#791=ORIENTED_EDGE('',*,*,#540,.T.);
#792=ORIENTED_EDGE('',*,*,#571,.T.);
#793=ORIENTED_EDGE('',*,*,#572,.F.);
#794=ORIENTED_EDGE('',*,*,#546,.F.);
#795=ORIENTED_EDGE('',*,*,#567,.F.);
#796=ORIENTED_EDGE('',*,*,#573,.F.);
#797=ORIENTED_EDGE('',*,*,#569,.F.);
#798=ORIENTED_EDGE('',*,*,#559,.F.);
#799=ORIENTED_EDGE('',*,*,#549,.F.);
#800=ORIENTED_EDGE('',*,*,#574,.F.);
#801=ORIENTED_EDGE('',*,*,#563,.F.);
#802=ORIENTED_EDGE('',*,*,#555,.F.);
#803=ORIENTED_EDGE('',*,*,#548,.F.);
#804=ORIENTED_EDGE('',*,*,#554,.T.);
#805=ORIENTED_EDGE('',*,*,#568,.F.);
#806=ORIENTED_EDGE('',*,*,#573,.T.);
#807=ORIENTED_EDGE('',*,*,#566,.F.);
#808=ORIENTED_EDGE('',*,*,#564,.T.);
#809=ORIENTED_EDGE('',*,*,#561,.F.);
#810=ORIENTED_EDGE('',*,*,#574,.T.);
#811=ORIENTED_EDGE('',*,*,#547,.T.);
#812=ORIENTED_EDGE('',*,*,#572,.T.);
#813=ORIENTED_EDGE('',*,*,#570,.T.);
#814=ORIENTED_EDGE('',*,*,#544,.T.);
#815=PLANE('',#909);
#816=PLANE('',#910);
#817=PLANE('',#911);
#818=PLANE('',#912);
#819=PLANE('',#913);
#820=PLANE('',#914);
#821=PLANE('',#915);
#822=PLANE('',#916);
#823=PLANE('',#917);
#824=PLANE('',#918);
#825=PLANE('',#919);
#826=PLANE('',#920);
#827=PLANE('',#921);
#828=PLANE('',#922);
#829=PLANE('',#923);
#830=PLANE('',#924);
#831=PLANE('',#925);
#832=PLANE('',#926);
#833=PLANE('',#927);
#834=PLANE('',#928);
#835=PLANE('',#941);
#836=PLANE('',#942);
#837=PLANE('',#943);
#838=PLANE('',#944);
#839=PLANE('',#945);
#840=PLANE('',#946);
#841=PLANE('',#947);
#842=PLANE('',#948);
#843=PLANE('',#952);
#844=PLANE('',#953);
#845=PLANE('',#959);
#846=PLANE('',#964);
#847=PLANE('',#965);
#848=PLANE('',#966);
#849=PLANE('',#967);
#850=PLANE('',#968);
#851=ADVANCED_FACE('',(#59),#815,.F.);
#852=ADVANCED_FACE('',(#60),#816,.F.);
#853=ADVANCED_FACE('',(#61),#817,.F.);
#854=ADVANCED_FACE('',(#62),#818,.F.);
#855=ADVANCED_FACE('',(#63),#819,.F.);
#856=ADVANCED_FACE('',(#64),#820,.F.);
#857=ADVANCED_FACE('',(#65),#821,.F.);
#858=ADVANCED_FACE('',(#66),#822,.F.);
#859=ADVANCED_FACE('',(#67),#823,.F.);
#860=ADVANCED_FACE('',(#68),#824,.F.);
#861=ADVANCED_FACE('',(#69),#825,.F.);
#862=ADVANCED_FACE('',(#70),#826,.F.);
#863=ADVANCED_FACE('',(#71),#827,.F.);
#864=ADVANCED_FACE('',(#72),#828,.F.);
#865=ADVANCED_FACE('',(#73),#829,.F.);
#866=ADVANCED_FACE('',(#74),#830,.F.);
#867=ADVANCED_FACE('',(#75),#831,.F.);
#868=ADVANCED_FACE('',(#76),#832,.F.);
#869=ADVANCED_FACE('',(#77),#833,.F.);
#870=ADVANCED_FACE('',(#78),#834,.F.);
#871=ADVANCED_FACE('',(#79),#51,.F.);
#872=ADVANCED_FACE('',(#80),#52,.F.);
#873=ADVANCED_FACE('',(#81),#53,.F.);
#874=ADVANCED_FACE('',(#82),#54,.F.);
#875=ADVANCED_FACE('',(#83),#835,.T.);
#876=ADVANCED_FACE('',(#84),#836,.T.);
#877=ADVANCED_FACE('',(#85),#837,.T.);
#878=ADVANCED_FACE('',(#86),#838,.T.);
#879=ADVANCED_FACE('',(#87,#15,#16,#17,#18,#19,#20,#21,#22),#839,.T.);
#880=ADVANCED_FACE('',(#88,#23,#24,#25,#26,#27,#28,#29,#30),#840,.F.);
#881=ADVANCED_FACE('',(#89),#841,.T.);
#882=ADVANCED_FACE('',(#90,#31),#842,.T.);
#883=ADVANCED_FACE('',(#91),#55,.T.);
#884=ADVANCED_FACE('',(#92),#843,.T.);
#885=ADVANCED_FACE('',(#93,#32),#844,.F.);
#886=ADVANCED_FACE('',(#94),#56,.T.);
#887=ADVANCED_FACE('',(#95,#33),#845,.T.);
#888=ADVANCED_FACE('',(#96),#57,.T.);
#889=ADVANCED_FACE('',(#97),#58,.T.);
#890=ADVANCED_FACE('',(#98),#846,.T.);
#891=ADVANCED_FACE('',(#99),#847,.T.);
#892=ADVANCED_FACE('',(#100),#848,.T.);
#893=ADVANCED_FACE('',(#101),#849,.T.);
#894=ADVANCED_FACE('',(#102,#34),#850,.T.);
#895=CLOSED_SHELL('',(#851,#852,#853,#854,#855,#856,#857,#858,#859,#860,
#861,#862,#863,#864,#865,#866,#867,#868,#869,#870,#871,#872,#873,#874,#875,
#876,#877,#878,#879,#880,#881,#882,#883,#884,#885,#886,#887,#888,#889,#890,
#891,#892,#893,#894));
#896=DERIVED_UNIT_ELEMENT(#898,1.);
#897=DERIVED_UNIT_ELEMENT(#1445,-3.);
#898=(
MASS_UNIT()
NAMED_UNIT(*)
SI_UNIT(.KILO.,.GRAM.)
);
#899=DERIVED_UNIT((#896,#897));
#900=MEASURE_REPRESENTATION_ITEM('density measure',
POSITIVE_RATIO_MEASURE(7850.),#899);
#901=PROPERTY_DEFINITION_REPRESENTATION(#906,#903);
#902=PROPERTY_DEFINITION_REPRESENTATION(#907,#904);
#903=REPRESENTATION('material name',(#905),#1442);
#904=REPRESENTATION('density',(#900),#1442);
#905=DESCRIPTIVE_REPRESENTATION_ITEM('Steel','Steel');
#906=PROPERTY_DEFINITION('material property','material name',#1452);
#907=PROPERTY_DEFINITION('material property','density of part',#1452);
#908=AXIS2_PLACEMENT_3D('',#1195,#969,#970);
#909=AXIS2_PLACEMENT_3D('',#1196,#971,#972);
#910=AXIS2_PLACEMENT_3D('',#1205,#977,#978);
#911=AXIS2_PLACEMENT_3D('',#1211,#982,#983);
#912=AXIS2_PLACEMENT_3D('',#1217,#987,#988);
#913=AXIS2_PLACEMENT_3D('',#1220,#991,#992);
#914=AXIS2_PLACEMENT_3D('',#1229,#997,#998);
#915=AXIS2_PLACEMENT_3D('',#1235,#1002,#1003);
#916=AXIS2_PLACEMENT_3D('',#1241,#1007,#1008);
#917=AXIS2_PLACEMENT_3D('',#1244,#1011,#1012);
#918=AXIS2_PLACEMENT_3D('',#1253,#1017,#1018);
#919=AXIS2_PLACEMENT_3D('',#1259,#1022,#1023);
#920=AXIS2_PLACEMENT_3D('',#1265,#1027,#1028);
#921=AXIS2_PLACEMENT_3D('',#1268,#1031,#1032);
#922=AXIS2_PLACEMENT_3D('',#1277,#1037,#1038);
#923=AXIS2_PLACEMENT_3D('',#1283,#1042,#1043);
#924=AXIS2_PLACEMENT_3D('',#1289,#1047,#1048);
#925=AXIS2_PLACEMENT_3D('',#1292,#1051,#1052);
#926=AXIS2_PLACEMENT_3D('',#1301,#1057,#1058);
#927=AXIS2_PLACEMENT_3D('',#1307,#1062,#1063);
#928=AXIS2_PLACEMENT_3D('',#1313,#1067,#1068);
#929=AXIS2_PLACEMENT_3D('',#1316,#1071,#1072);
#930=AXIS2_PLACEMENT_3D('',#1318,#1073,#1074);
#931=AXIS2_PLACEMENT_3D('',#1321,#1076,#1077);
#932=AXIS2_PLACEMENT_3D('',#1322,#1078,#1079);
#933=AXIS2_PLACEMENT_3D('',#1324,#1080,#1081);
#934=AXIS2_PLACEMENT_3D('',#1327,#1083,#1084);
#935=AXIS2_PLACEMENT_3D('',#1328,#1085,#1086);
#936=AXIS2_PLACEMENT_3D('',#1330,#1087,#1088);
#937=AXIS2_PLACEMENT_3D('',#1333,#1090,#1091);
#938=AXIS2_PLACEMENT_3D('',#1334,#1092,#1093);
#939=AXIS2_PLACEMENT_3D('',#1336,#1094,#1095);
#940=AXIS2_PLACEMENT_3D('',#1339,#1097,#1098);
#941=AXIS2_PLACEMENT_3D('',#1340,#1099,#1100);
#942=AXIS2_PLACEMENT_3D('',#1349,#1105,#1106);
#943=AXIS2_PLACEMENT_3D('',#1355,#1110,#1111);
#944=AXIS2_PLACEMENT_3D('',#1361,#1115,#1116);
#945=AXIS2_PLACEMENT_3D('',#1364,#1119,#1120);
#946=AXIS2_PLACEMENT_3D('',#1365,#1121,#1122);
#947=AXIS2_PLACEMENT_3D('',#1374,#1127,#1128);
#948=AXIS2_PLACEMENT_3D('',#1380,#1132,#1133);
#949=AXIS2_PLACEMENT_3D('',#1384,#1136,#1137);
#950=AXIS2_PLACEMENT_3D('',#1387,#1138,#1139);
#951=AXIS2_PLACEMENT_3D('',#1391,#1141,#1142);
#952=AXIS2_PLACEMENT_3D('',#1393,#1144,#1145);
#953=AXIS2_PLACEMENT_3D('',#1399,#1149,#1150);
#954=AXIS2_PLACEMENT_3D('',#1403,#1152,#1153);
#955=AXIS2_PLACEMENT_3D('',#1407,#1155,#1156);
#956=AXIS2_PLACEMENT_3D('',#1410,#1158,#1159);
#957=AXIS2_PLACEMENT_3D('',#1411,#1160,#1161);
#958=AXIS2_PLACEMENT_3D('',#1414,#1162,#1163);
#959=AXIS2_PLACEMENT_3D('',#1417,#1166,#1167);
#960=AXIS2_PLACEMENT_3D('',#1421,#1170,#1171);
#961=AXIS2_PLACEMENT_3D('',#1423,#1172,#1173);
#962=AXIS2_PLACEMENT_3D('',#1425,#1175,#1176);
#963=AXIS2_PLACEMENT_3D('',#1427,#1177,#1178);
#964=AXIS2_PLACEMENT_3D('',#1429,#1180,#1181);
#965=AXIS2_PLACEMENT_3D('',#1433,#1184,#1185);
#966=AXIS2_PLACEMENT_3D('',#1435,#1187,#1188);
#967=AXIS2_PLACEMENT_3D('',#1437,#1190,#1191);
#968=AXIS2_PLACEMENT_3D('',#1439,#1193,#1194);
#969=DIRECTION('axis',(0.,0.,1.));
#970=DIRECTION('refdir',(1.,0.,0.));
#971=DIRECTION('center_axis',(-1.,0.,0.));
#972=DIRECTION('ref_axis',(0.,1.,0.));
#973=DIRECTION('',(0.,-1.,0.));
#974=DIRECTION('',(0.,0.,-1.));
#975=DIRECTION('',(0.,1.,0.));
#976=DIRECTION('',(0.,0.,-1.));
#977=DIRECTION('center_axis',(0.,-1.,0.));
#978=DIRECTION('ref_axis',(-1.,0.,0.));
#979=DIRECTION('',(1.,0.,0.));
#980=DIRECTION('',(-1.,0.,0.));
#981=DIRECTION('',(0.,0.,-1.));
#982=DIRECTION('center_axis',(1.,0.,0.));
#983=DIRECTION('ref_axis',(0.,-1.,0.));
#984=DIRECTION('',(0.,1.,0.));
#985=DIRECTION('',(0.,-1.,0.));
#986=DIRECTION('',(0.,0.,-1.));
#987=DIRECTION('center_axis',(0.,1.,0.));
#988=DIRECTION('ref_axis',(1.,0.,0.));
#989=DIRECTION('',(-1.,0.,0.));
#990=DIRECTION('',(1.,0.,0.));
#991=DIRECTION('center_axis',(0.,-1.,0.));
#992=DIRECTION('ref_axis',(-1.,0.,0.));
#993=DIRECTION('',(1.,0.,0.));
#994=DIRECTION('',(0.,0.,-1.));
#995=DIRECTION('',(-1.,0.,0.));
#996=DIRECTION('',(0.,0.,-1.));
#997=DIRECTION('center_axis',(1.,0.,0.));
#998=DIRECTION('ref_axis',(0.,-1.,0.));
#999=DIRECTION('',(0.,1.,0.));
#1000=DIRECTION('',(0.,-1.,0.));
#1001=DIRECTION('',(0.,0.,-1.));
#1002=DIRECTION('center_axis',(0.,1.,0.));
#1003=DIRECTION('ref_axis',(1.,0.,0.));
#1004=DIRECTION('',(-1.,0.,0.));
#1005=DIRECTION('',(1.,0.,0.));
#1006=DIRECTION('',(0.,0.,-1.));
#1007=DIRECTION('center_axis',(-1.,0.,0.));
#1008=DIRECTION('ref_axis',(0.,1.,0.));
#1009=DIRECTION('',(0.,-1.,0.));
#1010=DIRECTION('',(0.,1.,0.));
#1011=DIRECTION('center_axis',(-1.,0.,0.));
#1012=DIRECTION('ref_axis',(0.,1.,0.));
#1013=DIRECTION('',(0.,-1.,0.));
#1014=DIRECTION('',(0.,0.,-1.));
#1015=DIRECTION('',(0.,1.,0.));
#1016=DIRECTION('',(0.,0.,-1.));
#1017=DIRECTION('center_axis',(0.,-1.,0.));
#1018=DIRECTION('ref_axis',(-1.,0.,0.));
#1019=DIRECTION('',(1.,0.,0.));
#1020=DIRECTION('',(-1.,0.,0.));
#1021=DIRECTION('',(0.,0.,-1.));
#1022=DIRECTION('center_axis',(1.,0.,0.));
#1023=DIRECTION('ref_axis',(0.,-1.,0.));
#1024=DIRECTION('',(0.,1.,0.));
#1025=DIRECTION('',(0.,-1.,0.));
#1026=DIRECTION('',(0.,0.,-1.));
#1027=DIRECTION('center_axis',(0.,1.,0.));
#1028=DIRECTION('ref_axis',(1.,0.,0.));
#1029=DIRECTION('',(-1.,0.,0.));
#1030=DIRECTION('',(1.,0.,0.));
#1031=DIRECTION('center_axis',(-1.,0.,0.));
#1032=DIRECTION('ref_axis',(0.,1.,0.));
#1033=DIRECTION('',(0.,-1.,0.));
#1034=DIRECTION('',(0.,0.,-1.));
#1035=DIRECTION('',(0.,1.,0.));
#1036=DIRECTION('',(0.,0.,-1.));
#1037=DIRECTION('center_axis',(0.,-1.,0.));
#1038=DIRECTION('ref_axis',(-1.,0.,0.));
#1039=DIRECTION('',(1.,0.,0.));
#1040=DIRECTION('',(-1.,0.,0.));
#1041=DIRECTION('',(0.,0.,-1.));
#1042=DIRECTION('center_axis',(1.,0.,0.));
#1043=DIRECTION('ref_axis',(0.,-1.,0.));
#1044=DIRECTION('',(0.,1.,0.));
#1045=DIRECTION('',(0.,-1.,0.));
#1046=DIRECTION('',(0.,0.,-1.));
#1047=DIRECTION('center_axis',(0.,1.,0.));
#1048=DIRECTION('ref_axis',(1.,0.,0.));
#1049=DIRECTION('',(-1.,0.,0.));
#1050=DIRECTION('',(1.,0.,0.));
#1051=DIRECTION('center_axis',(-1.,0.,0.));
#1052=DIRECTION('ref_axis',(0.,0.,1.));
#1053=DIRECTION('',(0.,0.,-1.));
#1054=DIRECTION('',(0.,1.,0.));
#1055=DIRECTION('',(0.,0.,1.));
#1056=DIRECTION('',(0.,1.,0.));
#1057=DIRECTION('center_axis',(0.,0.,-1.));
#1058=DIRECTION('ref_axis',(-1.,0.,0.));
#1059=DIRECTION('',(1.,0.,0.));
#1060=DIRECTION('',(-1.,0.,0.));
#1061=DIRECTION('',(0.,1.,0.));
#1062=DIRECTION('center_axis',(1.,0.,0.));
#1063=DIRECTION('ref_axis',(0.,0.,-1.));
#1064=DIRECTION('',(0.,0.,1.));
#1065=DIRECTION('',(0.,0.,-1.));
#1066=DIRECTION('',(0.,1.,0.));
#1067=DIRECTION('center_axis',(0.,0.,1.));
#1068=DIRECTION('ref_axis',(1.,0.,0.));
#1069=DIRECTION('',(-1.,0.,0.));
#1070=DIRECTION('',(1.,0.,0.));
#1071=DIRECTION('center_axis',(0.,0.,-1.));
#1072=DIRECTION('ref_axis',(-1.,0.,0.));
#1073=DIRECTION('center_axis',(0.,0.,-1.));
#1074=DIRECTION('ref_axis',(-1.,0.,0.));
#1075=DIRECTION('',(0.,0.,-1.));
#1076=DIRECTION('center_axis',(0.,0.,1.));
#1077=DIRECTION('ref_axis',(-1.,0.,0.));
#1078=DIRECTION('center_axis',(0.,0.,-1.));
#1079=DIRECTION('ref_axis',(-1.,0.,0.));
#1080=DIRECTION('center_axis',(0.,0.,-1.));
#1081=DIRECTION('ref_axis',(-1.,0.,0.));
#1082=DIRECTION('',(0.,0.,-1.));
#1083=DIRECTION('center_axis',(0.,0.,1.));
#1084=DIRECTION('ref_axis',(-1.,0.,0.));
#1085=DIRECTION('center_axis',(0.,0.,-1.));
#1086=DIRECTION('ref_axis',(-1.,0.,0.));
#1087=DIRECTION('center_axis',(0.,0.,-1.));
#1088=DIRECTION('ref_axis',(-1.,0.,0.));
#1089=DIRECTION('',(0.,0.,-1.));
#1090=DIRECTION('center_axis',(0.,0.,1.));
#1091=DIRECTION('ref_axis',(-1.,0.,0.));
#1092=DIRECTION('center_axis',(0.,0.,-1.));
#1093=DIRECTION('ref_axis',(-1.,0.,0.));
#1094=DIRECTION('center_axis',(0.,0.,-1.));
#1095=DIRECTION('ref_axis',(-1.,0.,0.));
#1096=DIRECTION('',(0.,0.,-1.));
#1097=DIRECTION('center_axis',(0.,0.,1.));
#1098=DIRECTION('ref_axis',(-1.,0.,0.));
#1099=DIRECTION('center_axis',(-1.,0.,0.));
#1100=DIRECTION('ref_axis',(0.,1.,0.));
#1101=DIRECTION('',(0.,-1.,0.));
#1102=DIRECTION('',(0.,0.,-1.));
#1103=DIRECTION('',(0.,1.,0.));
#1104=DIRECTION('',(0.,0.,-1.));
#1105=DIRECTION('center_axis',(0.,-1.,0.));
#1106=DIRECTION('ref_axis',(-1.,0.,0.));
#1107=DIRECTION('',(1.,0.,0.));
#1108=DIRECTION('',(-1.,0.,0.));
#1109=DIRECTION('',(0.,0.,-1.));
#1110=DIRECTION('center_axis',(1.,0.,0.));
#1111=DIRECTION('ref_axis',(0.,-1.,0.));
#1112=DIRECTION('',(0.,1.,0.));
#1113=DIRECTION('',(0.,-1.,0.));
#1114=DIRECTION('',(0.,0.,-1.));
#1115=DIRECTION('center_axis',(0.,1.,0.));
#1116=DIRECTION('ref_axis',(1.,0.,0.));
#1117=DIRECTION('',(-1.,0.,0.));
#1118=DIRECTION('',(1.,0.,0.));
#1119=DIRECTION('center_axis',(0.,0.,-1.));
#1120=DIRECTION('ref_axis',(-1.,0.,0.));
#1121=DIRECTION('center_axis',(0.,0.,-1.));
#1122=DIRECTION('ref_axis',(1.,0.,0.));
#1123=DIRECTION('',(1.,0.,0.));
#1124=DIRECTION('',(0.,1.,0.));
#1125=DIRECTION('',(-1.,0.,0.));
#1126=DIRECTION('',(0.,-1.,0.));
#1127=DIRECTION('center_axis',(-1.,0.,0.));
#1128=DIRECTION('ref_axis',(0.,-1.,0.));
#1129=DIRECTION('',(0.,0.,1.));
#1130=DIRECTION('',(0.,-1.,0.));
#1131=DIRECTION('',(0.,0.,1.));
#1132=DIRECTION('center_axis',(0.,1.,0.));
#1133=DIRECTION('ref_axis',(-1.,0.,0.));
#1134=DIRECTION('',(0.,0.,1.));
#1135=DIRECTION('',(-1.,0.,0.));
#1136=DIRECTION('center_axis',(0.,0.,1.));
#1137=DIRECTION('ref_axis',(0.707106781186547,0.707106781186548,0.));
#1138=DIRECTION('center_axis',(0.,0.,-1.));
#1139=DIRECTION('ref_axis',(0.707106781186547,0.707106781186548,0.));
#1140=DIRECTION('',(0.,0.,-1.));
#1141=DIRECTION('center_axis',(0.,0.,1.));
#1142=DIRECTION('ref_axis',(0.707106781186547,0.707106781186548,0.));
#1143=DIRECTION('',(0.,0.,1.));
#1144=DIRECTION('center_axis',(0.,1.,0.));
#1145=DIRECTION('ref_axis',(-1.,0.,0.));
#1146=DIRECTION('',(1.,0.,0.));
#1147=DIRECTION('',(0.,0.,-1.));
#1148=DIRECTION('',(-1.,0.,0.));
#1149=DIRECTION('center_axis',(0.,0.,1.));
#1150=DIRECTION('ref_axis',(1.,0.,0.));
#1151=DIRECTION('',(0.,-1.,0.));
#1152=DIRECTION('center_axis',(0.,0.,1.));
#1153=DIRECTION('ref_axis',(0.707106781186548,-0.707106781186548,0.));
#1154=DIRECTION('',(-1.,0.,0.));
#1155=DIRECTION('center_axis',(0.,0.,1.));
#1156=DIRECTION('ref_axis',(-0.707106781186548,-0.707106781186547,0.));
#1157=DIRECTION('',(0.,1.,0.));
#1158=DIRECTION('center_axis',(0.,0.,1.));
#1159=DIRECTION('ref_axis',(-0.707106781186548,0.707106781186548,0.));
#1160=DIRECTION('center_axis',(0.,0.,1.));
#1161=DIRECTION('ref_axis',(0.707106781186548,-0.707106781186548,0.));
#1162=DIRECTION('center_axis',(0.,0.,-1.));
#1163=DIRECTION('ref_axis',(0.707106781186548,-0.707106781186548,0.));
#1164=DIRECTION('',(0.,0.,-1.));
#1165=DIRECTION('',(0.,0.,1.));
#1166=DIRECTION('center_axis',(0.,-1.,0.));
#1167=DIRECTION('ref_axis',(1.,0.,0.));
#1168=DIRECTION('',(1.,0.,0.));
#1169=DIRECTION('',(0.,0.,1.));
#1170=DIRECTION('center_axis',(0.,0.,1.));
#1171=DIRECTION('ref_axis',(-0.707106781186548,-0.707106781186547,0.));
#1172=DIRECTION('center_axis',(0.,0.,-1.));
#1173=DIRECTION('ref_axis',(-0.707106781186548,-0.707106781186547,0.));
#1174=DIRECTION('',(0.,0.,-1.));
#1175=DIRECTION('center_axis',(0.,0.,1.));
#1176=DIRECTION('ref_axis',(-0.707106781186548,0.707106781186548,0.));
#1177=DIRECTION('center_axis',(0.,0.,-1.));
#1178=DIRECTION('ref_axis',(-0.707106781186548,0.707106781186548,0.));
#1179=DIRECTION('',(0.,0.,1.));
#1180=DIRECTION('center_axis',(0.,-1.,0.));
#1181=DIRECTION('ref_axis',(1.,0.,0.));
#1182=DIRECTION('',(1.,0.,0.));
#1183=DIRECTION('',(0.,0.,1.));
#1184=DIRECTION('center_axis',(1.,0.,0.));
#1185=DIRECTION('ref_axis',(0.,1.,0.));
#1186=DIRECTION('',(0.,1.,0.));
#1187=DIRECTION('center_axis',(-1.,0.,0.));
#1188=DIRECTION('ref_axis',(0.,-1.,0.));
#1189=DIRECTION('',(0.,-1.,0.));
#1190=DIRECTION('center_axis',(1.,0.,0.));
#1191=DIRECTION('ref_axis',(0.,1.,0.));
#1192=DIRECTION('',(0.,1.,0.));
#1193=DIRECTION('center_axis',(0.,0.,1.));
#1194=DIRECTION('ref_axis',(1.,0.,0.));
#1195=CARTESIAN_POINT('',(0.,0.,0.));
#1196=CARTESIAN_POINT('Origin',(-18.0000002682209,14.9999999701977,2.2));
#1197=CARTESIAN_POINT('',(-18.0000002682209,15.9999999850988,1.9));
#1198=CARTESIAN_POINT('',(-18.0000002682209,14.9999999701977,1.9));
#1199=CARTESIAN_POINT('',(-18.0000002682209,13.4999999850988,1.9));
#1200=CARTESIAN_POINT('',(-18.0000002682209,15.9999999850988,2.2));
#1201=CARTESIAN_POINT('',(-18.0000002682209,15.9999999850988,2.2));
#1202=CARTESIAN_POINT('',(-18.0000002682209,14.9999999701977,2.2));
#1203=CARTESIAN_POINT('',(-18.0000002682209,13.4999999850988,2.2));
#1204=CARTESIAN_POINT('',(-18.0000002682209,14.9999999701977,2.2));
#1205=CARTESIAN_POINT('Origin',(-1.00000001490116,14.9999999701977,2.2));
#1206=CARTESIAN_POINT('',(-1.00000001490116,14.9999999701977,1.9));
#1207=CARTESIAN_POINT('',(-5.30212664064303,14.9999999701977,1.9));
#1208=CARTESIAN_POINT('',(-1.00000001490116,14.9999999701977,2.2));
#1209=CARTESIAN_POINT('',(-5.30212664064303,14.9999999701977,2.2));
#1210=CARTESIAN_POINT('',(-1.00000001490116,14.9999999701977,2.2));
#1211=CARTESIAN_POINT('Origin',(-1.00000001490116,15.9999999850988,2.2));
#1212=CARTESIAN_POINT('',(-1.00000001490116,15.9999999850988,1.9));
#1213=CARTESIAN_POINT('',(-1.00000001490116,13.9999999925494,1.9));
#1214=CARTESIAN_POINT('',(-1.00000001490116,15.9999999850988,2.2));
#1215=CARTESIAN_POINT('',(-1.00000001490116,13.9999999925494,2.2));
#1216=CARTESIAN_POINT('',(-1.00000001490116,15.9999999850988,2.2));
#1217=CARTESIAN_POINT('Origin',(-18.0000002682209,15.9999999850988,2.2));
#1218=CARTESIAN_POINT('',(-13.8021267673029,15.9999999850988,1.9));
#1219=CARTESIAN_POINT('',(-13.8021267673029,15.9999999850988,2.2));
#1220=CARTESIAN_POINT('Origin',(-1.00000001490116,9.99999995529651,2.2));
#1221=CARTESIAN_POINT('',(-18.0000002682209,9.99999995529651,1.9));
#1222=CARTESIAN_POINT('',(-1.00000001490116,9.99999995529651,1.9));
#1223=CARTESIAN_POINT('',(-5.30212664064303,9.99999995529651,1.9));
#1224=CARTESIAN_POINT('',(-18.0000002682209,9.99999995529651,2.2));
#1225=CARTESIAN_POINT('',(-18.0000002682209,9.99999995529651,2.2));
#1226=CARTESIAN_POINT('',(-1.00000001490116,9.99999995529651,2.2));
#1227=CARTESIAN_POINT('',(-5.30212664064303,9.99999995529651,2.2));
#1228=CARTESIAN_POINT('',(-1.00000001490116,9.99999995529651,2.2));
#1229=CARTESIAN_POINT('Origin',(-1.00000001490116,10.9999999701977,2.2));
#1230=CARTESIAN_POINT('',(-1.00000001490116,10.9999999701977,1.9));
#1231=CARTESIAN_POINT('',(-1.00000001490116,11.4999999850988,1.9));
#1232=CARTESIAN_POINT('',(-1.00000001490116,10.9999999701977,2.2));
#1233=CARTESIAN_POINT('',(-1.00000001490116,11.4999999850988,2.2));
#1234=CARTESIAN_POINT('',(-1.00000001490116,10.9999999701977,2.2));
#1235=CARTESIAN_POINT('Origin',(-18.0000002682209,10.9999999701977,2.2));
#1236=CARTESIAN_POINT('',(-18.0000002682209,10.9999999701977,1.9));
#1237=CARTESIAN_POINT('',(-13.8021267673029,10.9999999701977,1.9));
#1238=CARTESIAN_POINT('',(-18.0000002682209,10.9999999701977,2.2));
#1239=CARTESIAN_POINT('',(-13.8021267673029,10.9999999701977,2.2));
#1240=CARTESIAN_POINT('',(-18.0000002682209,10.9999999701977,2.2));
#1241=CARTESIAN_POINT('Origin',(-18.0000002682209,9.99999995529651,2.2));
#1242=CARTESIAN_POINT('',(-18.0000002682209,10.9999999776483,1.9));
#1243=CARTESIAN_POINT('',(-18.0000002682209,10.9999999776483,2.2));
#1244=CARTESIAN_POINT('Origin',(-18.0000002682209,4.99999994039535,2.2));
#1245=CARTESIAN_POINT('',(-18.0000002682209,5.99999995529652,1.9));
#1246=CARTESIAN_POINT('',(-18.0000002682209,4.99999994039535,1.9));
#1247=CARTESIAN_POINT('',(-18.0000002682209,8.49999997019768,1.9));
#1248=CARTESIAN_POINT('',(-18.0000002682209,5.99999995529652,2.2));
#1249=CARTESIAN_POINT('',(-18.0000002682209,5.99999995529652,2.2));
#1250=CARTESIAN_POINT('',(-18.0000002682209,4.99999994039535,2.2));
#1251=CARTESIAN_POINT('',(-18.0000002682209,8.49999997019768,2.2));
#1252=CARTESIAN_POINT('',(-18.0000002682209,4.99999994039535,2.2));
#1253=CARTESIAN_POINT('Origin',(-1.00000001490116,4.99999994039535,2.2));
#1254=CARTESIAN_POINT('',(-1.00000001490116,4.99999994039535,1.9));
#1255=CARTESIAN_POINT('',(-5.30212664064303,4.99999994039535,1.9));
#1256=CARTESIAN_POINT('',(-1.00000001490116,4.99999994039535,2.2));
#1257=CARTESIAN_POINT('',(-5.30212664064303,4.99999994039535,2.2));
#1258=CARTESIAN_POINT('',(-1.00000001490116,4.99999994039535,2.2));
#1259=CARTESIAN_POINT('Origin',(-1.00000001490116,5.99999995529652,2.2));
#1260=CARTESIAN_POINT('',(-1.00000001490116,5.99999995529652,1.9));
#1261=CARTESIAN_POINT('',(-1.00000001490116,8.99999997764826,1.9));
#1262=CARTESIAN_POINT('',(-1.00000001490116,5.99999995529652,2.2));
#1263=CARTESIAN_POINT('',(-1.00000001490116,8.99999997764826,2.2));
#1264=CARTESIAN_POINT('',(-1.00000001490116,5.99999995529652,2.2));
#1265=CARTESIAN_POINT('Origin',(-18.0000002682209,5.99999995529652,2.2));
#1266=CARTESIAN_POINT('',(-13.8021267673029,5.99999995529652,1.9));
#1267=CARTESIAN_POINT('',(-13.8021267673029,5.99999995529652,2.2));
#1268=CARTESIAN_POINT('Origin',(-18.1042532663849,19.9999999850988,2.2));
#1269=CARTESIAN_POINT('',(-18.1042532663849,21.,1.9));
#1270=CARTESIAN_POINT('',(-18.1042532663849,19.9999999850988,1.9));
#1271=CARTESIAN_POINT('',(-18.1042532663849,15.9999999925494,1.9));
#1272=CARTESIAN_POINT('',(-18.1042532663849,21.,2.2));
#1273=CARTESIAN_POINT('',(-18.1042532663849,21.,2.2));
#1274=CARTESIAN_POINT('',(-18.1042532663849,19.9999999850988,2.2));
#1275=CARTESIAN_POINT('',(-18.1042532663849,15.9999999925494,2.2));
#1276=CARTESIAN_POINT('',(-18.1042532663849,19.9999999850988,2.2));
#1277=CARTESIAN_POINT('Origin',(-1.10425301306517,19.9999999850988,2.2));
#1278=CARTESIAN_POINT('',(-1.10425301306517,19.9999999850988,1.9));
#1279=CARTESIAN_POINT('',(-5.35425313972504,19.9999999850988,1.9));
#1280=CARTESIAN_POINT('',(-1.10425301306517,19.9999999850988,2.2));
#1281=CARTESIAN_POINT('',(-5.35425313972504,19.9999999850988,2.2));
#1282=CARTESIAN_POINT('',(-1.10425301306517,19.9999999850988,2.2));
#1283=CARTESIAN_POINT('Origin',(-1.10425301306517,21.,2.2));
#1284=CARTESIAN_POINT('',(-1.10425301306517,21.,1.9));
#1285=CARTESIAN_POINT('',(-1.10425301306517,16.5,1.9));
#1286=CARTESIAN_POINT('',(-1.10425301306517,21.,2.2));
#1287=CARTESIAN_POINT('',(-1.10425301306517,16.5,2.2));
#1288=CARTESIAN_POINT('',(-1.10425301306517,21.,2.2));
#1289=CARTESIAN_POINT('Origin',(-18.1042532663849,21.,2.2));
#1290=CARTESIAN_POINT('',(-13.8542532663849,21.,1.9));
#1291=CARTESIAN_POINT('',(-13.8542532663849,21.,2.2));
#1292=CARTESIAN_POINT('Origin',(-17.0000002533197,-6.,4.00000005960464));
#1293=CARTESIAN_POINT('',(-17.0000002533197,-4.,5.00000007450581));
#1294=CARTESIAN_POINT('',(-17.0000002533197,-4.,4.00000005960464));
#1295=CARTESIAN_POINT('',(-17.0000002533197,-4.,3.00000002980232));
#1296=CARTESIAN_POINT('',(-17.0000002533197,-6.,5.00000007450581));
#1297=CARTESIAN_POINT('',(-17.0000002533197,-6.,5.00000007450581));
#1298=CARTESIAN_POINT('',(-17.0000002533197,-6.,4.00000005960464));
#1299=CARTESIAN_POINT('',(-17.0000002533197,-6.,3.00000002980232));
#1300=CARTESIAN_POINT('',(-17.0000002533197,-6.,4.00000005960464));
#1301=CARTESIAN_POINT('Origin',(-2.00000002980232,-6.,4.00000005960464));
#1302=CARTESIAN_POINT('',(-2.00000002980232,-4.,4.00000005960464));
#1303=CARTESIAN_POINT('',(2.19787335190639,-4.,4.00000005960464));
#1304=CARTESIAN_POINT('',(-2.00000002980232,-6.,4.00000005960464));
#1305=CARTESIAN_POINT('',(-14.8021266480936,-6.,4.00000005960464));
#1306=CARTESIAN_POINT('',(-2.00000002980232,-6.,4.00000005960464));
#1307=CARTESIAN_POINT('Origin',(-2.00000002980232,-6.,5.00000007450581));
#1308=CARTESIAN_POINT('',(-2.00000002980232,-4.,5.00000007450581));
#1309=CARTESIAN_POINT('',(-2.00000002980232,-4.,3.5000000372529));
#1310=CARTESIAN_POINT('',(-2.00000002980232,-6.,5.00000007450581));
#1311=CARTESIAN_POINT('',(-2.00000002980232,-6.,3.5000000372529));
#1312=CARTESIAN_POINT('',(-2.00000002980232,-6.,5.00000007450581));
#1313=CARTESIAN_POINT('Origin',(-17.0000002533197,-6.,5.00000007450581));
#1314=CARTESIAN_POINT('',(-5.30212675985232,-4.,5.00000007450581));
#1315=CARTESIAN_POINT('',(-22.3021267598523,-6.,5.00000007450581));
#1316=CARTESIAN_POINT('Origin',(4.39574673361509,26.,2.2));
#1317=CARTESIAN_POINT('',(5.89574673361509,26.,2.2));
#1318=CARTESIAN_POINT('Origin',(4.39574673361509,26.,2.2));
#1319=CARTESIAN_POINT('',(5.89574673361509,26.,1.9));
#1320=CARTESIAN_POINT('',(5.89574673361509,26.,2.2));
#1321=CARTESIAN_POINT('Origin',(4.39574673361509,26.,1.9));
#1322=CARTESIAN_POINT('Origin',(-23.6042532663849,26.,2.2));
#1323=CARTESIAN_POINT('',(-22.1042532663849,26.,2.2));
#1324=CARTESIAN_POINT('Origin',(-23.6042532663849,26.,2.2));
#1325=CARTESIAN_POINT('',(-22.1042532663849,26.,1.9));
#1326=CARTESIAN_POINT('',(-22.1042532663849,26.,2.2));
#1327=CARTESIAN_POINT('Origin',(-23.6042532663849,26.,1.9));
#1328=CARTESIAN_POINT('Origin',(-23.6042532663849,-2.,2.2));
#1329=CARTESIAN_POINT('',(-22.1042532663849,-2.,2.2));
#1330=CARTESIAN_POINT('Origin',(-23.6042532663849,-2.,2.2));
#1331=CARTESIAN_POINT('',(-22.1042532663849,-2.,1.9));
#1332=CARTESIAN_POINT('',(-22.1042532663849,-2.,2.2));
#1333=CARTESIAN_POINT('Origin',(-23.6042532663849,-2.,1.9));
#1334=CARTESIAN_POINT('Origin',(4.39574673361509,-2.,2.2));
#1335=CARTESIAN_POINT('',(5.89574673361509,-2.,2.2));
#1336=CARTESIAN_POINT('Origin',(4.39574673361509,-2.,2.2));
#1337=CARTESIAN_POINT('',(5.89574673361509,-2.,1.9));
#1338=CARTESIAN_POINT('',(5.89574673361509,-2.,2.2));
#1339=CARTESIAN_POINT('Origin',(4.39574673361509,-2.,1.9));
#1340=CARTESIAN_POINT('Origin',(-25.6042532663849,-4.,2.));
#1341=CARTESIAN_POINT('',(-25.6042532663849,28.,2.));
#1342=CARTESIAN_POINT('',(-25.6042532663849,-4.,2.));
#1343=CARTESIAN_POINT('',(-25.6042532663849,4.,2.));
#1344=CARTESIAN_POINT('',(-25.6042532663849,28.,1.9));
#1345=CARTESIAN_POINT('',(-25.6042532663849,28.,2.));
#1346=CARTESIAN_POINT('',(-25.6042532663849,-4.,1.9));
#1347=CARTESIAN_POINT('',(-25.6042532663849,28.,1.9));
#1348=CARTESIAN_POINT('',(-25.6042532663849,-4.,2.));
#1349=CARTESIAN_POINT('Origin',(6.39574673361509,-4.,2.));
#1350=CARTESIAN_POINT('',(6.39574673361509,-4.,2.));
#1351=CARTESIAN_POINT('',(-1.60425326638491,-4.,2.));
#1352=CARTESIAN_POINT('',(6.39574673361509,-4.,1.9));
#1353=CARTESIAN_POINT('',(-25.6042532663849,-4.,1.9));
#1354=CARTESIAN_POINT('',(6.39574673361509,-4.,2.));
#1355=CARTESIAN_POINT('Origin',(6.39574673361509,28.,2.));
#1356=CARTESIAN_POINT('',(6.39574673361509,28.,2.));
#1357=CARTESIAN_POINT('',(6.39574673361509,20.,2.));
#1358=CARTESIAN_POINT('',(6.39574673361509,28.,1.9));
#1359=CARTESIAN_POINT('',(6.39574673361509,-4.,1.9));
#1360=CARTESIAN_POINT('',(6.39574673361509,28.,2.));
#1361=CARTESIAN_POINT('Origin',(-25.6042532663849,28.,2.));
#1362=CARTESIAN_POINT('',(-17.6042532663849,28.,2.));
#1363=CARTESIAN_POINT('',(6.39574673361509,28.,1.9));
#1364=CARTESIAN_POINT('Origin',(-9.60425326638491,12.,1.9));
#1365=CARTESIAN_POINT('Origin',(-9.60425326638491,12.,2.2));
#1366=CARTESIAN_POINT('',(-25.6042532663849,28.,2.2));
#1367=CARTESIAN_POINT('',(6.39574673361509,28.,2.2));
#1368=CARTESIAN_POINT('',(-17.6042532663849,28.,2.2));
#1369=CARTESIAN_POINT('',(-25.6042532663849,-4.,2.2));
#1370=CARTESIAN_POINT('',(-25.6042532663849,4.,2.2));
#1371=CARTESIAN_POINT('',(6.39574673361509,-4.,2.2));
#1372=CARTESIAN_POINT('',(-1.60425326638491,-4.,2.2));
#1373=CARTESIAN_POINT('',(6.39574673361509,20.,2.2));
#1374=CARTESIAN_POINT('Origin',(6.39574673361509,28.,2.));
#1375=CARTESIAN_POINT('',(6.39574673361509,-4.,7.));
#1376=CARTESIAN_POINT('',(6.39574673361509,-4.,2.));
#1377=CARTESIAN_POINT('',(6.39574673361509,28.,7.));
#1378=CARTESIAN_POINT('',(6.39574673361509,28.,7.));
#1379=CARTESIAN_POINT('',(6.39574673361509,28.,2.));
#1380=CARTESIAN_POINT('Origin',(6.39574673361509,-4.,2.));
#1381=CARTESIAN_POINT('',(-25.6042532663849,-4.,7.));
#1382=CARTESIAN_POINT('',(-25.6042532663849,-4.,2.));
#1383=CARTESIAN_POINT('',(6.39574673361509,-4.,7.));
#1384=CARTESIAN_POINT('Origin',(6.39574673361509,28.,2.));
#1385=CARTESIAN_POINT('',(6.39574673361509,30.,7.));
#1386=CARTESIAN_POINT('',(8.39574673361509,28.,7.));
#1387=CARTESIAN_POINT('Origin',(6.39574673361509,28.,7.));
#1388=CARTESIAN_POINT('',(8.39574673361509,28.,2.));
#1389=CARTESIAN_POINT('',(8.39574673361509,28.,2.));
#1390=CARTESIAN_POINT('',(6.39574673361509,30.,2.));
#1391=CARTESIAN_POINT('Origin',(6.39574673361509,28.,2.));
#1392=CARTESIAN_POINT('',(6.39574673361509,30.,2.));
#1393=CARTESIAN_POINT('Origin',(8.39574673361509,30.,2.));
#1394=CARTESIAN_POINT('',(-25.6042532663849,30.,2.));
#1395=CARTESIAN_POINT('',(-27.6042532663849,30.,2.));
#1396=CARTESIAN_POINT('',(-25.6042532663849,30.,7.));
#1397=CARTESIAN_POINT('',(-25.6042532663849,30.,2.));
#1398=CARTESIAN_POINT('',(-27.6042532663849,30.,7.));
#1399=CARTESIAN_POINT('Origin',(-9.60425326638491,12.,2.));
#1400=CARTESIAN_POINT('',(8.39574673361509,-4.,2.));
#1401=CARTESIAN_POINT('',(8.39574673361509,30.,2.));
#1402=CARTESIAN_POINT('',(6.39574673361509,-6.,2.));
#1403=CARTESIAN_POINT('Origin',(6.39574673361509,-4.,2.));
#1404=CARTESIAN_POINT('',(-25.6042532663849,-6.,2.));
#1405=CARTESIAN_POINT('',(8.39574673361509,-6.,2.));
#1406=CARTESIAN_POINT('',(-27.6042532663849,-4.,2.));
#1407=CARTESIAN_POINT('Origin',(-25.6042532663849,-4.,2.));
#1408=CARTESIAN_POINT('',(-27.6042532663849,28.,2.));
#1409=CARTESIAN_POINT('',(-27.6042532663849,-6.,2.));
#1410=CARTESIAN_POINT('Origin',(-25.6042532663849,28.,2.));
#1411=CARTESIAN_POINT('Origin',(6.39574673361509,-4.,2.));
#1412=CARTESIAN_POINT('',(8.39574673361509,-4.,7.));
#1413=CARTESIAN_POINT('',(6.39574673361509,-6.,7.));
#1414=CARTESIAN_POINT('Origin',(6.39574673361509,-4.,7.));
#1415=CARTESIAN_POINT('',(6.39574673361509,-6.,2.));
#1416=CARTESIAN_POINT('',(8.39574673361509,-4.,2.));
#1417=CARTESIAN_POINT('Origin',(-27.6042532663849,-6.,2.));
#1418=CARTESIAN_POINT('',(-25.6042532663849,-6.,7.));
#1419=CARTESIAN_POINT('',(8.39574673361509,-6.,7.));
#1420=CARTESIAN_POINT('',(-25.6042532663849,-6.,2.));
#1421=CARTESIAN_POINT('Origin',(-25.6042532663849,-4.,2.));
#1422=CARTESIAN_POINT('',(-27.6042532663849,-4.,7.));
#1423=CARTESIAN_POINT('Origin',(-25.6042532663849,-4.,7.));
#1424=CARTESIAN_POINT('',(-27.6042532663849,-4.,2.));
#1425=CARTESIAN_POINT('Origin',(-25.6042532663849,28.,2.));
#1426=CARTESIAN_POINT('',(-27.6042532663849,28.,7.));
#1427=CARTESIAN_POINT('Origin',(-25.6042532663849,28.,7.));
#1428=CARTESIAN_POINT('',(-27.6042532663849,28.,2.));
#1429=CARTESIAN_POINT('Origin',(-25.6042532663849,28.,2.));
#1430=CARTESIAN_POINT('',(-25.6042532663849,28.,7.));
#1431=CARTESIAN_POINT('',(-25.6042532663849,28.,7.));
#1432=CARTESIAN_POINT('',(-25.6042532663849,28.,2.));
#1433=CARTESIAN_POINT('Origin',(-25.6042532663849,-4.,2.));
#1434=CARTESIAN_POINT('',(-25.6042532663849,-4.,7.));
#1435=CARTESIAN_POINT('Origin',(-27.6042532663849,30.,2.));
#1436=CARTESIAN_POINT('',(-27.6042532663849,-6.,7.));
#1437=CARTESIAN_POINT('Origin',(8.39574673361509,-6.,2.));
#1438=CARTESIAN_POINT('',(8.39574673361509,30.,7.));
#1439=CARTESIAN_POINT('Origin',(-9.60425326638491,12.,7.));
#1440=UNCERTAINTY_MEASURE_WITH_UNIT(LENGTH_MEASURE(0.01),#1444,
'DISTANCE_ACCURACY_VALUE',
'Maximum model space distance between geometric entities at asserted c
onnectivities');
#1441=UNCERTAINTY_MEASURE_WITH_UNIT(LENGTH_MEASURE(0.01),#1444,
'DISTANCE_ACCURACY_VALUE',
'Maximum model space distance between geometric entities at asserted c
onnectivities');
#1442=(
GEOMETRIC_REPRESENTATION_CONTEXT(3)
GLOBAL_UNCERTAINTY_ASSIGNED_CONTEXT((#1440))
GLOBAL_UNIT_ASSIGNED_CONTEXT((#1444,#1446,#1447))
REPRESENTATION_CONTEXT('','3D')
);
#1443=(
GEOMETRIC_REPRESENTATION_CONTEXT(3)
GLOBAL_UNCERTAINTY_ASSIGNED_CONTEXT((#1441))
GLOBAL_UNIT_ASSIGNED_CONTEXT((#1444,#1446,#1447))
REPRESENTATION_CONTEXT('','3D')
);
#1444=(
LENGTH_UNIT()
NAMED_UNIT(*)
SI_UNIT(.MILLI.,.METRE.)
);
#1445=(
LENGTH_UNIT()
NAMED_UNIT(*)
SI_UNIT($,.METRE.)
);
#1446=(
NAMED_UNIT(*)
PLANE_ANGLE_UNIT()
SI_UNIT($,.RADIAN.)
);
#1447=(
NAMED_UNIT(*)
SI_UNIT($,.STERADIAN.)
SOLID_ANGLE_UNIT()
);
#1448=SHAPE_DEFINITION_REPRESENTATION(#1449,#1450);
#1449=PRODUCT_DEFINITION_SHAPE('',$,#1452);
#1450=SHAPE_REPRESENTATION('',(#908),#1442);
#1451=PRODUCT_DEFINITION_CONTEXT('part definition',#1456,'design');
#1452=PRODUCT_DEFINITION('2025-12-08-12-01-31-899','camplate',#1453,#1451);
#1453=PRODUCT_DEFINITION_FORMATION('',$,#1458);
#1454=PRODUCT_RELATED_PRODUCT_CATEGORY('camplate','camplate',(#1458));
#1455=APPLICATION_PROTOCOL_DEFINITION('international standard',
'automotive_design',2009,#1456);
#1456=APPLICATION_CONTEXT(
'Core Data for Automotive Mechanical Design Process');
#1457=PRODUCT_CONTEXT('part definition',#1456,'mechanical');
#1458=PRODUCT('2025-12-08-12-01-31-899','camplate',$,(#1457));
#1459=PRESENTATION_STYLE_ASSIGNMENT((#1460));
#1460=SURFACE_STYLE_USAGE(.BOTH.,#1461);
#1461=SURFACE_SIDE_STYLE('',(#1462));
#1462=SURFACE_STYLE_FILL_AREA(#1463);
#1463=FILL_AREA_STYLE('Steel - Satin',(#1464));
#1464=FILL_AREA_STYLE_COLOUR('Steel - Satin',#1465);
#1465=COLOUR_RGB('Steel - Satin',0.627450980392157,0.627450980392157,0.627450980392157);
ENDSEC;
END-ISO-10303-21;
