ISO-10303-21;
HEADER;
/* Generated by software containing ST-Developer
 * from STEP Tools, Inc. (www.steptools.com) 
 */

FILE_DESCRIPTION(
/* description */ (''),
/* implementation_level */ '2;1');

FILE_NAME(
/* name */ 'dust cap.step',
/* time_stamp */ '2026-01-07T12:53:59+05:00',
/* author */ (''),
/* organization */ (''),
/* preprocessor_version */ 'ST-DEVELOPER v20.1',
/* originating_system */ 'Autodesk Translation Framework v14.21.0.0',
/* authorisation */ '');

FILE_SCHEMA (('AUTOMOTIVE_DESIGN { 1 0 10303 214 3 1 1 }'));
ENDSEC;

DATA;
#10=MECHANICAL_DESIGN_GEOMETRIC_PRESENTATION_REPRESENTATION('',(#13),#612);
#11=SHAPE_REPRESENTATION_RELATIONSHIP('SRR','None',#619,#12);
#12=ADVANCED_BREP_SHAPE_REPRESENTATION('',(#14),#611);
#13=STYLED_ITEM('',(#628),#14);
#14=MANIFOLD_SOLID_BREP('Body1',#329);
#15=B_SPLINE_CURVE_WITH_KNOTS('',3,(#508,#509,#510,#511,#512,#513,#514,
#515,#516,#517),.UNSPECIFIED.,.F.,.F.,(4,2,2,2,4),(0.151019128518059,0.169881820726279,
0.1887445129345,0.207660535549153,0.226576558163807),.UNSPECIFIED.);
#16=B_SPLINE_CURVE_WITH_KNOTS('',3,(#521,#522,#523,#524,#525,#526,#527,
#528,#529,#530),.UNSPECIFIED.,.F.,.F.,(4,2,2,2,4),(0.0754617159815079,0.0944068851609126,
0.113352054340317,0.132185591429188,0.151019128518059),.UNSPECIFIED.);
#17=B_SPLINE_CURVE_WITH_KNOTS('',3,(#541,#542,#543,#544,#545,#546,#547,
#548,#549,#550),.UNSPECIFIED.,.F.,.F.,(4,2,2,2,4),(0.151019128518059,0.169881820726279,
0.1887445129345,0.207660535549153,0.226576558163807),.UNSPECIFIED.);
#18=B_SPLINE_CURVE_WITH_KNOTS('',3,(#554,#555,#556,#557,#558,#559,#560,
#561,#562,#563),.UNSPECIFIED.,.F.,.F.,(4,2,2,2,4),(0.0754617159815079,0.0944068851609126,
0.113352054340317,0.132185591429188,0.151019128518059),.UNSPECIFIED.);
#19=CONICAL_SURFACE('',#352,17.,0.785398163397449);
#20=FACE_BOUND('',#58,.T.);
#21=FACE_BOUND('',#60,.T.);
#22=FACE_BOUND('',#78,.T.);
#23=PLANE('',#346);
#24=PLANE('',#348);
#25=PLANE('',#356);
#26=PLANE('',#358);
#27=PLANE('',#360);
#28=PLANE('',#361);
#29=PLANE('',#362);
#30=PLANE('',#363);
#31=PLANE('',#375);
#32=PLANE('',#376);
#33=PLANE('',#377);
#34=PLANE('',#378);
#35=PLANE('',#379);
#36=FACE_OUTER_BOUND('',#56,.T.);
#37=FACE_OUTER_BOUND('',#57,.T.);
#38=FACE_OUTER_BOUND('',#59,.T.);
#39=FACE_OUTER_BOUND('',#61,.T.);
#40=FACE_OUTER_BOUND('',#62,.T.);
#41=FACE_OUTER_BOUND('',#63,.T.);
#42=FACE_OUTER_BOUND('',#64,.T.);
#43=FACE_OUTER_BOUND('',#65,.T.);
#44=FACE_OUTER_BOUND('',#66,.T.);
#45=FACE_OUTER_BOUND('',#67,.T.);
#46=FACE_OUTER_BOUND('',#68,.T.);
#47=FACE_OUTER_BOUND('',#69,.T.);
#48=FACE_OUTER_BOUND('',#70,.T.);
#49=FACE_OUTER_BOUND('',#71,.T.);
#50=FACE_OUTER_BOUND('',#72,.T.);
#51=FACE_OUTER_BOUND('',#73,.T.);
#52=FACE_OUTER_BOUND('',#74,.T.);
#53=FACE_OUTER_BOUND('',#75,.T.);
#54=FACE_OUTER_BOUND('',#76,.T.);
#55=FACE_OUTER_BOUND('',#77,.T.);
#56=EDGE_LOOP('',(#215,#216,#217,#218));
#57=EDGE_LOOP('',(#219));
#58=EDGE_LOOP('',(#220));
#59=EDGE_LOOP('',(#221));
#60=EDGE_LOOP('',(#222));
#61=EDGE_LOOP('',(#223,#224,#225,#226));
#62=EDGE_LOOP('',(#227,#228,#229,#230));
#63=EDGE_LOOP('',(#231,#232,#233,#234));
#64=EDGE_LOOP('',(#235));
#65=EDGE_LOOP('',(#236,#237,#238,#239));
#66=EDGE_LOOP('',(#240,#241,#242,#243));
#67=EDGE_LOOP('',(#244,#245,#246,#247));
#68=EDGE_LOOP('',(#248,#249,#250,#251));
#69=EDGE_LOOP('',(#252,#253,#254,#255));
#70=EDGE_LOOP('',(#256,#257,#258,#259));
#71=EDGE_LOOP('',(#260,#261,#262,#263,#264,#265,#266,#267));
#72=EDGE_LOOP('',(#268,#269,#270,#271,#272,#273,#274,#275,#276,#277,#278,
#279,#280,#281,#282,#283,#284,#285,#286,#287,#288,#289,#290,#291));
#73=EDGE_LOOP('',(#292,#293));
#74=EDGE_LOOP('',(#294,#295));
#75=EDGE_LOOP('',(#296,#297,#298));
#76=EDGE_LOOP('',(#299,#300));
#77=EDGE_LOOP('',(#301));
#78=EDGE_LOOP('',(#302));
#79=LINE('',#484,#102);
#80=LINE('',#495,#103);
#81=LINE('',#500,#104);
#82=LINE('',#503,#105);
#83=LINE('',#519,#106);
#84=LINE('',#531,#107);
#85=LINE('',#534,#108);
#86=LINE('',#536,#109);
#87=LINE('',#537,#110);
#88=LINE('',#552,#111);
#89=LINE('',#564,#112);
#90=LINE('',#567,#113);
#91=LINE('',#569,#114);
#92=LINE('',#570,#115);
#93=LINE('',#574,#116);
#94=LINE('',#576,#117);
#95=LINE('',#578,#118);
#96=LINE('',#579,#119);
#97=LINE('',#583,#120);
#98=LINE('',#585,#121);
#99=LINE('',#587,#122);
#100=LINE('',#588,#123);
#101=LINE('',#598,#124);
#102=VECTOR('',#386,16.5);
#103=VECTOR('',#401,20.5);
#104=VECTOR('',#406,17.);
#105=VECTOR('',#411,17.5);
#106=VECTOR('',#416,10.);
#107=VECTOR('',#417,10.);
#108=VECTOR('',#420,10.);
#109=VECTOR('',#421,10.);
#110=VECTOR('',#422,10.);
#111=VECTOR('',#425,10.);
#112=VECTOR('',#426,10.);
#113=VECTOR('',#429,10.);
#114=VECTOR('',#430,10.);
#115=VECTOR('',#431,10.);
#116=VECTOR('',#434,10.);
#117=VECTOR('',#435,10.);
#118=VECTOR('',#436,10.);
#119=VECTOR('',#437,10.);
#120=VECTOR('',#440,10.);
#121=VECTOR('',#441,10.);
#122=VECTOR('',#442,10.);
#123=VECTOR('',#443,10.);
#124=VECTOR('',#458,16.);
#125=CIRCLE('',#344,16.5);
#126=CIRCLE('',#345,16.5);
#127=CIRCLE('',#347,20.5);
#128=CIRCLE('',#349,20.5);
#129=CIRCLE('',#350,17.5);
#130=CIRCLE('',#353,17.5);
#131=CIRCLE('',#354,16.5);
#132=CIRCLE('',#364,16.);
#133=CIRCLE('',#365,16.);
#134=CIRCLE('',#366,16.);
#135=CIRCLE('',#367,16.);
#136=CIRCLE('',#369,16.);
#137=CIRCLE('',#370,16.);
#138=CIRCLE('',#371,16.);
#139=CIRCLE('',#372,16.);
#140=CIRCLE('',#373,16.);
#141=CIRCLE('',#374,16.);
#142=VERTEX_POINT('',#481);
#143=VERTEX_POINT('',#483);
#144=VERTEX_POINT('',#487);
#145=VERTEX_POINT('',#490);
#146=VERTEX_POINT('',#492);
#147=VERTEX_POINT('',#497);
#148=VERTEX_POINT('',#499);
#149=VERTEX_POINT('',#506);
#150=VERTEX_POINT('',#507);
#151=VERTEX_POINT('',#518);
#152=VERTEX_POINT('',#520);
#153=VERTEX_POINT('',#533);
#154=VERTEX_POINT('',#535);
#155=VERTEX_POINT('',#539);
#156=VERTEX_POINT('',#540);
#157=VERTEX_POINT('',#551);
#158=VERTEX_POINT('',#553);
#159=VERTEX_POINT('',#566);
#160=VERTEX_POINT('',#568);
#161=VERTEX_POINT('',#572);
#162=VERTEX_POINT('',#573);
#163=VERTEX_POINT('',#575);
#164=VERTEX_POINT('',#577);
#165=VERTEX_POINT('',#581);
#166=VERTEX_POINT('',#582);
#167=VERTEX_POINT('',#584);
#168=VERTEX_POINT('',#586);
#169=VERTEX_POINT('',#595);
#170=VERTEX_POINT('',#597);
#171=EDGE_CURVE('',#142,#142,#125,.T.);
#172=EDGE_CURVE('',#142,#143,#79,.T.);
#173=EDGE_CURVE('',#143,#143,#126,.T.);
#174=EDGE_CURVE('',#144,#144,#127,.T.);
#175=EDGE_CURVE('',#145,#145,#128,.T.);
#176=EDGE_CURVE('',#146,#146,#129,.T.);
#177=EDGE_CURVE('',#145,#144,#80,.T.);
#178=EDGE_CURVE('',#147,#147,#130,.T.);
#179=EDGE_CURVE('',#147,#148,#81,.T.);
#180=EDGE_CURVE('',#148,#148,#131,.T.);
#181=EDGE_CURVE('',#146,#147,#82,.T.);
#182=EDGE_CURVE('',#149,#150,#15,.F.);
#183=EDGE_CURVE('',#150,#151,#83,.T.);
#184=EDGE_CURVE('',#151,#152,#16,.F.);
#185=EDGE_CURVE('',#152,#149,#84,.T.);
#186=EDGE_CURVE('',#153,#150,#85,.T.);
#187=EDGE_CURVE('',#154,#153,#86,.T.);
#188=EDGE_CURVE('',#151,#154,#87,.T.);
#189=EDGE_CURVE('',#155,#156,#17,.F.);
#190=EDGE_CURVE('',#156,#157,#88,.T.);
#191=EDGE_CURVE('',#157,#158,#18,.F.);
#192=EDGE_CURVE('',#158,#155,#89,.T.);
#193=EDGE_CURVE('',#159,#156,#90,.T.);
#194=EDGE_CURVE('',#160,#159,#91,.T.);
#195=EDGE_CURVE('',#157,#160,#92,.T.);
#196=EDGE_CURVE('',#161,#162,#93,.T.);
#197=EDGE_CURVE('',#163,#161,#94,.T.);
#198=EDGE_CURVE('',#164,#163,#95,.T.);
#199=EDGE_CURVE('',#162,#164,#96,.T.);
#200=EDGE_CURVE('',#165,#166,#97,.T.);
#201=EDGE_CURVE('',#167,#165,#98,.T.);
#202=EDGE_CURVE('',#168,#167,#99,.T.);
#203=EDGE_CURVE('',#166,#168,#100,.T.);
#204=EDGE_CURVE('',#168,#152,#132,.T.);
#205=EDGE_CURVE('',#155,#167,#133,.T.);
#206=EDGE_CURVE('',#164,#158,#134,.T.);
#207=EDGE_CURVE('',#149,#163,#135,.T.);
#208=EDGE_CURVE('',#169,#169,#136,.T.);
#209=EDGE_CURVE('',#169,#170,#101,.T.);
#210=EDGE_CURVE('',#170,#162,#137,.T.);
#211=EDGE_CURVE('',#160,#159,#138,.T.);
#212=EDGE_CURVE('',#165,#166,#139,.T.);
#213=EDGE_CURVE('',#154,#153,#140,.T.);
#214=EDGE_CURVE('',#161,#170,#141,.T.);
#215=ORIENTED_EDGE('',*,*,#171,.F.);
#216=ORIENTED_EDGE('',*,*,#172,.T.);
#217=ORIENTED_EDGE('',*,*,#173,.F.);
#218=ORIENTED_EDGE('',*,*,#172,.F.);
#219=ORIENTED_EDGE('',*,*,#174,.T.);
#220=ORIENTED_EDGE('',*,*,#171,.T.);
#221=ORIENTED_EDGE('',*,*,#175,.T.);
#222=ORIENTED_EDGE('',*,*,#176,.F.);
#223=ORIENTED_EDGE('',*,*,#175,.F.);
#224=ORIENTED_EDGE('',*,*,#177,.T.);
#225=ORIENTED_EDGE('',*,*,#174,.F.);
#226=ORIENTED_EDGE('',*,*,#177,.F.);
#227=ORIENTED_EDGE('',*,*,#178,.T.);
#228=ORIENTED_EDGE('',*,*,#179,.T.);
#229=ORIENTED_EDGE('',*,*,#180,.T.);
#230=ORIENTED_EDGE('',*,*,#179,.F.);
#231=ORIENTED_EDGE('',*,*,#176,.T.);
#232=ORIENTED_EDGE('',*,*,#181,.T.);
#233=ORIENTED_EDGE('',*,*,#178,.F.);
#234=ORIENTED_EDGE('',*,*,#181,.F.);
#235=ORIENTED_EDGE('',*,*,#180,.F.);
#236=ORIENTED_EDGE('',*,*,#182,.T.);
#237=ORIENTED_EDGE('',*,*,#183,.T.);
#238=ORIENTED_EDGE('',*,*,#184,.T.);
#239=ORIENTED_EDGE('',*,*,#185,.T.);
#240=ORIENTED_EDGE('',*,*,#183,.F.);
#241=ORIENTED_EDGE('',*,*,#186,.F.);
#242=ORIENTED_EDGE('',*,*,#187,.F.);
#243=ORIENTED_EDGE('',*,*,#188,.F.);
#244=ORIENTED_EDGE('',*,*,#189,.T.);
#245=ORIENTED_EDGE('',*,*,#190,.T.);
#246=ORIENTED_EDGE('',*,*,#191,.T.);
#247=ORIENTED_EDGE('',*,*,#192,.T.);
#248=ORIENTED_EDGE('',*,*,#190,.F.);
#249=ORIENTED_EDGE('',*,*,#193,.F.);
#250=ORIENTED_EDGE('',*,*,#194,.F.);
#251=ORIENTED_EDGE('',*,*,#195,.F.);
#252=ORIENTED_EDGE('',*,*,#196,.F.);
#253=ORIENTED_EDGE('',*,*,#197,.F.);
#254=ORIENTED_EDGE('',*,*,#198,.F.);
#255=ORIENTED_EDGE('',*,*,#199,.F.);
#256=ORIENTED_EDGE('',*,*,#200,.F.);
#257=ORIENTED_EDGE('',*,*,#201,.F.);
#258=ORIENTED_EDGE('',*,*,#202,.F.);
#259=ORIENTED_EDGE('',*,*,#203,.F.);
#260=ORIENTED_EDGE('',*,*,#185,.F.);
#261=ORIENTED_EDGE('',*,*,#204,.F.);
#262=ORIENTED_EDGE('',*,*,#202,.T.);
#263=ORIENTED_EDGE('',*,*,#205,.F.);
#264=ORIENTED_EDGE('',*,*,#192,.F.);
#265=ORIENTED_EDGE('',*,*,#206,.F.);
#266=ORIENTED_EDGE('',*,*,#198,.T.);
#267=ORIENTED_EDGE('',*,*,#207,.F.);
#268=ORIENTED_EDGE('',*,*,#208,.F.);
#269=ORIENTED_EDGE('',*,*,#209,.T.);
#270=ORIENTED_EDGE('',*,*,#210,.T.);
#271=ORIENTED_EDGE('',*,*,#199,.T.);
#272=ORIENTED_EDGE('',*,*,#206,.T.);
#273=ORIENTED_EDGE('',*,*,#191,.F.);
#274=ORIENTED_EDGE('',*,*,#195,.T.);
#275=ORIENTED_EDGE('',*,*,#211,.T.);
#276=ORIENTED_EDGE('',*,*,#193,.T.);
#277=ORIENTED_EDGE('',*,*,#189,.F.);
#278=ORIENTED_EDGE('',*,*,#205,.T.);
#279=ORIENTED_EDGE('',*,*,#201,.T.);
#280=ORIENTED_EDGE('',*,*,#212,.T.);
#281=ORIENTED_EDGE('',*,*,#203,.T.);
#282=ORIENTED_EDGE('',*,*,#204,.T.);
#283=ORIENTED_EDGE('',*,*,#184,.F.);
#284=ORIENTED_EDGE('',*,*,#188,.T.);
#285=ORIENTED_EDGE('',*,*,#213,.T.);
#286=ORIENTED_EDGE('',*,*,#186,.T.);
#287=ORIENTED_EDGE('',*,*,#182,.F.);
#288=ORIENTED_EDGE('',*,*,#207,.T.);
#289=ORIENTED_EDGE('',*,*,#197,.T.);
#290=ORIENTED_EDGE('',*,*,#214,.T.);
#291=ORIENTED_EDGE('',*,*,#209,.F.);
#292=ORIENTED_EDGE('',*,*,#200,.T.);
#293=ORIENTED_EDGE('',*,*,#212,.F.);
#294=ORIENTED_EDGE('',*,*,#187,.T.);
#295=ORIENTED_EDGE('',*,*,#213,.F.);
#296=ORIENTED_EDGE('',*,*,#196,.T.);
#297=ORIENTED_EDGE('',*,*,#210,.F.);
#298=ORIENTED_EDGE('',*,*,#214,.F.);
#299=ORIENTED_EDGE('',*,*,#194,.T.);
#300=ORIENTED_EDGE('',*,*,#211,.F.);
#301=ORIENTED_EDGE('',*,*,#173,.T.);
#302=ORIENTED_EDGE('',*,*,#208,.T.);
#303=CYLINDRICAL_SURFACE('',#343,16.5);
#304=CYLINDRICAL_SURFACE('',#351,20.5);
#305=CYLINDRICAL_SURFACE('',#355,17.5);
#306=CYLINDRICAL_SURFACE('',#357,0.5);
#307=CYLINDRICAL_SURFACE('',#359,0.5);
#308=CYLINDRICAL_SURFACE('',#368,16.);
#309=ADVANCED_FACE('',(#36),#303,.F.);
#310=ADVANCED_FACE('',(#37,#20),#23,.F.);
#311=ADVANCED_FACE('',(#38,#21),#24,.T.);
#312=ADVANCED_FACE('',(#39),#304,.T.);
#313=ADVANCED_FACE('',(#40),#19,.T.);
#314=ADVANCED_FACE('',(#41),#305,.T.);
#315=ADVANCED_FACE('',(#42),#25,.F.);
#316=ADVANCED_FACE('',(#43),#306,.T.);
#317=ADVANCED_FACE('',(#44),#26,.T.);
#318=ADVANCED_FACE('',(#45),#307,.T.);
#319=ADVANCED_FACE('',(#46),#27,.T.);
#320=ADVANCED_FACE('',(#47),#28,.T.);
#321=ADVANCED_FACE('',(#48),#29,.T.);
#322=ADVANCED_FACE('',(#49),#30,.T.);
#323=ADVANCED_FACE('',(#50),#308,.F.);
#324=ADVANCED_FACE('',(#51),#31,.T.);
#325=ADVANCED_FACE('',(#52),#32,.T.);
#326=ADVANCED_FACE('',(#53),#33,.T.);
#327=ADVANCED_FACE('',(#54),#34,.T.);
#328=ADVANCED_FACE('',(#55,#22),#35,.T.);
#329=CLOSED_SHELL('',(#309,#310,#311,#312,#313,#314,#315,#316,#317,#318,
#319,#320,#321,#322,#323,#324,#325,#326,#327,#328));
#330=DERIVED_UNIT_ELEMENT(#332,1.);
#331=DERIVED_UNIT_ELEMENT(#614,-3.);
#332=(
MASS_UNIT()
NAMED_UNIT(*)
SI_UNIT(.KILO.,.GRAM.)
);
#333=DERIVED_UNIT((#330,#331));
#334=MEASURE_REPRESENTATION_ITEM('density measure',
POSITIVE_RATIO_MEASURE(7850.),#333);
#335=PROPERTY_DEFINITION_REPRESENTATION(#340,#337);
#336=PROPERTY_DEFINITION_REPRESENTATION(#341,#338);
#337=REPRESENTATION('material name',(#339),#611);
#338=REPRESENTATION('density',(#334),#611);
#339=DESCRIPTIVE_REPRESENTATION_ITEM('Steel','Steel');
#340=PROPERTY_DEFINITION('material property','material name',#621);
#341=PROPERTY_DEFINITION('material property','density of part',#621);
#342=AXIS2_PLACEMENT_3D('',#479,#380,#381);
#343=AXIS2_PLACEMENT_3D('',#480,#382,#383);
#344=AXIS2_PLACEMENT_3D('',#482,#384,#385);
#345=AXIS2_PLACEMENT_3D('',#485,#387,#388);
#346=AXIS2_PLACEMENT_3D('',#486,#389,#390);
#347=AXIS2_PLACEMENT_3D('',#488,#391,#392);
#348=AXIS2_PLACEMENT_3D('',#489,#393,#394);
#349=AXIS2_PLACEMENT_3D('',#491,#395,#396);
#350=AXIS2_PLACEMENT_3D('',#493,#397,#398);
#351=AXIS2_PLACEMENT_3D('',#494,#399,#400);
#352=AXIS2_PLACEMENT_3D('',#496,#402,#403);
#353=AXIS2_PLACEMENT_3D('',#498,#404,#405);
#354=AXIS2_PLACEMENT_3D('',#501,#407,#408);
#355=AXIS2_PLACEMENT_3D('',#502,#409,#410);
#356=AXIS2_PLACEMENT_3D('',#504,#412,#413);
#357=AXIS2_PLACEMENT_3D('',#505,#414,#415);
#358=AXIS2_PLACEMENT_3D('',#532,#418,#419);
#359=AXIS2_PLACEMENT_3D('',#538,#423,#424);
#360=AXIS2_PLACEMENT_3D('',#565,#427,#428);
#361=AXIS2_PLACEMENT_3D('',#571,#432,#433);
#362=AXIS2_PLACEMENT_3D('',#580,#438,#439);
#363=AXIS2_PLACEMENT_3D('',#589,#444,#445);
#364=AXIS2_PLACEMENT_3D('',#590,#446,#447);
#365=AXIS2_PLACEMENT_3D('',#591,#448,#449);
#366=AXIS2_PLACEMENT_3D('',#592,#450,#451);
#367=AXIS2_PLACEMENT_3D('',#593,#452,#453);
#368=AXIS2_PLACEMENT_3D('',#594,#454,#455);
#369=AXIS2_PLACEMENT_3D('',#596,#456,#457);
#370=AXIS2_PLACEMENT_3D('',#599,#459,#460);
#371=AXIS2_PLACEMENT_3D('',#600,#461,#462);
#372=AXIS2_PLACEMENT_3D('',#601,#463,#464);
#373=AXIS2_PLACEMENT_3D('',#602,#465,#466);
#374=AXIS2_PLACEMENT_3D('',#603,#467,#468);
#375=AXIS2_PLACEMENT_3D('',#604,#469,#470);
#376=AXIS2_PLACEMENT_3D('',#605,#471,#472);
#377=AXIS2_PLACEMENT_3D('',#606,#473,#474);
#378=AXIS2_PLACEMENT_3D('',#607,#475,#476);
#379=AXIS2_PLACEMENT_3D('',#608,#477,#478);
#380=DIRECTION('axis',(0.,0.,1.));
#381=DIRECTION('refdir',(1.,0.,0.));
#382=DIRECTION('center_axis',(0.,0.,1.));
#383=DIRECTION('ref_axis',(1.,0.,0.));
#384=DIRECTION('center_axis',(0.,0.,-1.));
#385=DIRECTION('ref_axis',(1.,0.,0.));
#386=DIRECTION('',(0.,0.,-1.));
#387=DIRECTION('center_axis',(0.,0.,1.));
#388=DIRECTION('ref_axis',(1.,0.,0.));
#389=DIRECTION('center_axis',(0.,0.,-1.));
#390=DIRECTION('ref_axis',(1.,0.,0.));
#391=DIRECTION('center_axis',(0.,0.,1.));
#392=DIRECTION('ref_axis',(1.,0.,0.));
#393=DIRECTION('center_axis',(0.,0.,-1.));
#394=DIRECTION('ref_axis',(1.,0.,0.));
#395=DIRECTION('center_axis',(0.,0.,-1.));
#396=DIRECTION('ref_axis',(1.,0.,0.));
#397=DIRECTION('center_axis',(0.,0.,-1.));
#398=DIRECTION('ref_axis',(1.,0.,0.));
#399=DIRECTION('center_axis',(0.,0.,-1.));
#400=DIRECTION('ref_axis',(1.,0.,0.));
#401=DIRECTION('',(0.,0.,1.));
#402=DIRECTION('center_axis',(0.,0.,1.));
#403=DIRECTION('ref_axis',(1.,0.,0.));
#404=DIRECTION('center_axis',(0.,0.,-1.));
#405=DIRECTION('ref_axis',(1.,0.,0.));
#406=DIRECTION('',(0.707106781186548,8.65956056235494E-17,-0.707106781186547));
#407=DIRECTION('center_axis',(0.,0.,1.));
#408=DIRECTION('ref_axis',(1.,0.,0.));
#409=DIRECTION('center_axis',(0.,0.,1.));
#410=DIRECTION('ref_axis',(1.,0.,0.));
#411=DIRECTION('',(0.,0.,-1.));
#412=DIRECTION('center_axis',(0.,0.,1.));
#413=DIRECTION('ref_axis',(1.,0.,0.));
#414=DIRECTION('center_axis',(1.,0.,0.));
#415=DIRECTION('ref_axis',(0.,-0.707106781186549,0.707106781186546));
#416=DIRECTION('',(1.,0.,0.));
#417=DIRECTION('',(-1.,0.,0.));
#418=DIRECTION('center_axis',(0.,-1.,0.));
#419=DIRECTION('ref_axis',(1.,0.,0.));
#420=DIRECTION('',(0.,0.,1.));
#421=DIRECTION('',(-1.,0.,0.));
#422=DIRECTION('',(0.,0.,-1.));
#423=DIRECTION('center_axis',(-1.,0.,0.));
#424=DIRECTION('ref_axis',(0.,0.707106781186549,0.707106781186546));
#425=DIRECTION('',(-1.,0.,0.));
#426=DIRECTION('',(1.,0.,0.));
#427=DIRECTION('center_axis',(0.,1.,0.));
#428=DIRECTION('ref_axis',(-1.,0.,0.));
#429=DIRECTION('',(0.,0.,1.));
#430=DIRECTION('',(1.,0.,0.));
#431=DIRECTION('',(0.,0.,-1.));
#432=DIRECTION('center_axis',(-1.,0.,0.));
#433=DIRECTION('ref_axis',(0.,-1.,0.));
#434=DIRECTION('',(0.,1.,0.));
#435=DIRECTION('',(0.,0.,-1.));
#436=DIRECTION('',(0.,-1.,0.));
#437=DIRECTION('',(0.,0.,1.));
#438=DIRECTION('center_axis',(1.,0.,0.));
#439=DIRECTION('ref_axis',(0.,1.,0.));
#440=DIRECTION('',(0.,-1.,0.));
#441=DIRECTION('',(0.,0.,-1.));
#442=DIRECTION('',(0.,1.,0.));
#443=DIRECTION('',(0.,0.,1.));
#444=DIRECTION('center_axis',(0.,0.,1.));
#445=DIRECTION('ref_axis',(-1.,0.,0.));
#446=DIRECTION('center_axis',(0.,0.,-1.));
#447=DIRECTION('ref_axis',(1.,0.,0.));
#448=DIRECTION('center_axis',(0.,0.,-1.));
#449=DIRECTION('ref_axis',(1.,0.,0.));
#450=DIRECTION('center_axis',(0.,0.,-1.));
#451=DIRECTION('ref_axis',(1.,0.,0.));
#452=DIRECTION('center_axis',(0.,0.,-1.));
#453=DIRECTION('ref_axis',(1.,0.,0.));
#454=DIRECTION('center_axis',(0.,0.,1.));
#455=DIRECTION('ref_axis',(1.,0.,0.));
#456=DIRECTION('center_axis',(0.,0.,-1.));
#457=DIRECTION('ref_axis',(1.,0.,0.));
#458=DIRECTION('',(0.,0.,-1.));
#459=DIRECTION('center_axis',(0.,0.,-1.));
#460=DIRECTION('ref_axis',(1.,0.,0.));
#461=DIRECTION('center_axis',(0.,0.,-1.));
#462=DIRECTION('ref_axis',(1.,0.,0.));
#463=DIRECTION('center_axis',(0.,0.,-1.));
#464=DIRECTION('ref_axis',(1.,0.,0.));
#465=DIRECTION('center_axis',(0.,0.,-1.));
#466=DIRECTION('ref_axis',(1.,0.,0.));
#467=DIRECTION('center_axis',(0.,0.,-1.));
#468=DIRECTION('ref_axis',(1.,0.,0.));
#469=DIRECTION('center_axis',(0.,0.,1.));
#470=DIRECTION('ref_axis',(1.,0.,0.));
#471=DIRECTION('center_axis',(0.,0.,1.));
#472=DIRECTION('ref_axis',(1.,0.,0.));
#473=DIRECTION('center_axis',(0.,0.,1.));
#474=DIRECTION('ref_axis',(1.,0.,0.));
#475=DIRECTION('center_axis',(0.,0.,1.));
#476=DIRECTION('ref_axis',(1.,0.,0.));
#477=DIRECTION('center_axis',(0.,0.,1.));
#478=DIRECTION('ref_axis',(1.,0.,0.));
#479=CARTESIAN_POINT('',(0.,0.,0.));
#480=CARTESIAN_POINT('Origin',(0.,0.,15.));
#481=CARTESIAN_POINT('',(-16.5,2.02066721859313E-15,15.01));
#482=CARTESIAN_POINT('Origin',(0.,0.,15.01));
#483=CARTESIAN_POINT('',(-16.5,2.02066721859313E-15,15.));
#484=CARTESIAN_POINT('',(-16.5,-2.02066721859313E-15,15.));
#485=CARTESIAN_POINT('Origin',(0.,0.,15.));
#486=CARTESIAN_POINT('Origin',(0.,0.,15.01));
#487=CARTESIAN_POINT('',(-20.5,2.51052593825208E-15,15.01));
#488=CARTESIAN_POINT('Origin',(0.,0.,15.01));
#489=CARTESIAN_POINT('Origin',(0.,0.,14.5));
#490=CARTESIAN_POINT('',(-20.5,2.51052593825208E-15,14.5));
#491=CARTESIAN_POINT('Origin',(0.,0.,14.5));
#492=CARTESIAN_POINT('',(-17.5,2.14313189850787E-15,14.5));
#493=CARTESIAN_POINT('Origin',(0.,0.,14.5));
#494=CARTESIAN_POINT('Origin',(0.,0.,15.));
#495=CARTESIAN_POINT('',(-20.5,2.51052593825208E-15,15.));
#496=CARTESIAN_POINT('Origin',(0.,0.,0.5));
#497=CARTESIAN_POINT('',(-17.5,2.14313189850787E-15,1.));
#498=CARTESIAN_POINT('Origin',(0.,0.,1.));
#499=CARTESIAN_POINT('',(-16.5,-2.02066721859313E-15,0.));
#500=CARTESIAN_POINT('',(-17.,-2.0818995585505E-15,0.5));
#501=CARTESIAN_POINT('Origin',(0.,0.,0.));
#502=CARTESIAN_POINT('Origin',(0.,0.,0.));
#503=CARTESIAN_POINT('',(-17.5,-2.14313189850787E-15,0.));
#504=CARTESIAN_POINT('Origin',(0.,0.,0.));
#505=CARTESIAN_POINT('Origin',(-7.93725393319377,-1.5,11.5));
#506=CARTESIAN_POINT('',(-15.929532322074,-1.5,12.));
#507=CARTESIAN_POINT('',(-15.8745078663875,-2.,11.5));
#508=CARTESIAN_POINT('Ctrl Pts',(-15.8745078663875,-2.,11.5));
#509=CARTESIAN_POINT('Ctrl Pts',(-15.8745078663875,-2.,11.5628756406941));
#510=CARTESIAN_POINT('Ctrl Pts',(-15.8761093749448,-1.98741367354136,11.6298978931347));
#511=CARTESIAN_POINT('Ctrl Pts',(-15.8824190833678,-1.93634347523193,11.7530808661853));
#512=CARTESIAN_POINT('Ctrl Pts',(-15.8871050541889,-1.89786275159335,11.8092440295932));
#513=CARTESIAN_POINT('Ctrl Pts',(-15.8974554765719,-1.8091187539324,11.8979880272542));
#514=CARTESIAN_POINT('Ctrl Pts',(-15.903811716548,-1.75288575791206,11.9364538160482));
#515=CARTESIAN_POINT('Ctrl Pts',(-15.9169049591083,-1.62971534887039,11.9874598125388));
#516=CARTESIAN_POINT('Ctrl Pts',(-15.9236210650069,-1.56277570700942,12.));
#517=CARTESIAN_POINT('Ctrl Pts',(-15.929532322074,-1.5,12.));
#518=CARTESIAN_POINT('',(15.8745078663875,-2.,11.5));
#519=CARTESIAN_POINT('',(-7.93725393319377,-2.,11.5));
#520=CARTESIAN_POINT('',(15.929532322074,-1.5,12.));
#521=CARTESIAN_POINT('Ctrl Pts',(15.929532322074,-1.5,12.));
#522=CARTESIAN_POINT('Ctrl Pts',(15.9236119567054,-1.56287243433135,12.));
#523=CARTESIAN_POINT('Ctrl Pts',(15.916885461063,-1.62990859324784,11.9874214627586));
#524=CARTESIAN_POINT('Ctrl Pts',(15.903774443294,-1.75322652838754,11.9362708445437));
#525=CARTESIAN_POINT('Ctrl Pts',(15.8974109350654,-1.80951054687175,11.8976987852523));
#526=CARTESIAN_POINT('Ctrl Pts',(15.8870701249342,-1.89815230404519,11.8088515858905));
#527=CARTESIAN_POINT('Ctrl Pts',(15.8823966131665,-1.93652680565569,11.7527392381928));
#528=CARTESIAN_POINT('Ctrl Pts',(15.8761044306047,-1.98745222751757,11.6297038899403));
#529=CARTESIAN_POINT('Ctrl Pts',(15.8745078663875,-2.,11.5627784569629));
#530=CARTESIAN_POINT('Ctrl Pts',(15.8745078663875,-2.,11.5));
#531=CARTESIAN_POINT('',(-7.93725393319377,-1.5,12.));
#532=CARTESIAN_POINT('Origin',(-15.8745078663875,-2.,2.));
#533=CARTESIAN_POINT('',(-15.8745078663875,-2.,2.));
#534=CARTESIAN_POINT('',(-15.8745078663875,-2.,0.));
#535=CARTESIAN_POINT('',(15.8745078663875,-2.,2.));
#536=CARTESIAN_POINT('',(-7.93725393319377,-2.,2.));
#537=CARTESIAN_POINT('',(15.8745078663875,-2.,0.));
#538=CARTESIAN_POINT('Origin',(7.93725393319377,1.5,11.5));
#539=CARTESIAN_POINT('',(15.929532322074,1.5,12.));
#540=CARTESIAN_POINT('',(15.8745078663875,2.,11.5));
#541=CARTESIAN_POINT('Ctrl Pts',(15.8745078663875,2.,11.5));
#542=CARTESIAN_POINT('Ctrl Pts',(15.8745078663875,2.,11.5628756406941));
#543=CARTESIAN_POINT('Ctrl Pts',(15.8761093749448,1.98741367354136,11.6298978931347));
#544=CARTESIAN_POINT('Ctrl Pts',(15.8824190833678,1.93634347523193,11.7530808661853));
#545=CARTESIAN_POINT('Ctrl Pts',(15.8871050541889,1.89786275159335,11.8092440295932));
#546=CARTESIAN_POINT('Ctrl Pts',(15.8974554765719,1.8091187539324,11.8979880272542));
#547=CARTESIAN_POINT('Ctrl Pts',(15.903811716548,1.75288575791206,11.9364538160482));
#548=CARTESIAN_POINT('Ctrl Pts',(15.9169049591083,1.62971534887039,11.9874598125388));
#549=CARTESIAN_POINT('Ctrl Pts',(15.9236210650069,1.56277570700942,12.));
#550=CARTESIAN_POINT('Ctrl Pts',(15.929532322074,1.5,12.));
#551=CARTESIAN_POINT('',(-15.8745078663875,2.,11.5));
#552=CARTESIAN_POINT('',(7.93725393319377,2.,11.5));
#553=CARTESIAN_POINT('',(-15.929532322074,1.5,12.));
#554=CARTESIAN_POINT('Ctrl Pts',(-15.929532322074,1.5,12.));
#555=CARTESIAN_POINT('Ctrl Pts',(-15.9236119567054,1.56287243433135,12.));
#556=CARTESIAN_POINT('Ctrl Pts',(-15.916885461063,1.62990859324784,11.9874214627586));
#557=CARTESIAN_POINT('Ctrl Pts',(-15.903774443294,1.75322652838754,11.9362708445437));
#558=CARTESIAN_POINT('Ctrl Pts',(-15.8974109350654,1.80951054687175,11.8976987852523));
#559=CARTESIAN_POINT('Ctrl Pts',(-15.8870701249342,1.89815230404519,11.8088515858905));
#560=CARTESIAN_POINT('Ctrl Pts',(-15.8823966131665,1.93652680565569,11.7527392381928));
#561=CARTESIAN_POINT('Ctrl Pts',(-15.8761044306047,1.98745222751757,11.6297038899403));
#562=CARTESIAN_POINT('Ctrl Pts',(-15.8745078663875,2.,11.5627784569629));
#563=CARTESIAN_POINT('Ctrl Pts',(-15.8745078663875,2.,11.5));
#564=CARTESIAN_POINT('',(7.93725393319377,1.5,12.));
#565=CARTESIAN_POINT('Origin',(15.8745078663875,2.,2.));
#566=CARTESIAN_POINT('',(15.8745078663875,2.,2.));
#567=CARTESIAN_POINT('',(15.8745078663875,2.,0.));
#568=CARTESIAN_POINT('',(-15.8745078663875,2.,2.));
#569=CARTESIAN_POINT('',(7.93725393319377,2.,2.));
#570=CARTESIAN_POINT('',(-15.8745078663875,2.,0.));
#571=CARTESIAN_POINT('Origin',(-15.9587543137357,1.1481118211321,2.));
#572=CARTESIAN_POINT('',(-15.9587543137357,-1.14811182113206,2.));
#573=CARTESIAN_POINT('',(-15.9587543137357,1.1481118211321,2.));
#574=CARTESIAN_POINT('',(-15.9587543137357,0.574055910566048,2.));
#575=CARTESIAN_POINT('',(-15.9587543137357,-1.14811182113206,12.));
#576=CARTESIAN_POINT('',(-15.9587543137357,-1.14811182113205,0.));
#577=CARTESIAN_POINT('',(-15.9587543137357,1.1481118211321,12.));
#578=CARTESIAN_POINT('',(-15.9587543137357,-2.,12.));
#579=CARTESIAN_POINT('',(-15.9587543137357,1.14811182113205,0.));
#580=CARTESIAN_POINT('Origin',(15.9587543137357,-1.14811182113206,2.));
#581=CARTESIAN_POINT('',(15.9587543137357,1.14811182113205,2.));
#582=CARTESIAN_POINT('',(15.9587543137357,-1.14811182113206,2.));
#583=CARTESIAN_POINT('',(15.9587543137357,-0.574055910566032,2.));
#584=CARTESIAN_POINT('',(15.9587543137357,1.14811182113205,12.));
#585=CARTESIAN_POINT('',(15.9587543137357,1.14811182113205,0.));
#586=CARTESIAN_POINT('',(15.9587543137357,-1.14811182113206,12.));
#587=CARTESIAN_POINT('',(15.9587543137357,2.,12.));
#588=CARTESIAN_POINT('',(15.9587543137357,-1.14811182113205,0.));
#589=CARTESIAN_POINT('Origin',(0.,0.,12.));
#590=CARTESIAN_POINT('Origin',(0.,0.,12.));
#591=CARTESIAN_POINT('Origin',(0.,0.,12.));
#592=CARTESIAN_POINT('Origin',(0.,0.,12.));
#593=CARTESIAN_POINT('Origin',(0.,0.,12.));
#594=CARTESIAN_POINT('Origin',(0.,0.,0.));
#595=CARTESIAN_POINT('',(-16.,-1.95943487863577E-15,15.));
#596=CARTESIAN_POINT('Origin',(0.,0.,15.));
#597=CARTESIAN_POINT('',(-16.,-1.95943487863577E-15,2.));
#598=CARTESIAN_POINT('',(-16.,-1.95943487863577E-15,0.));
#599=CARTESIAN_POINT('Origin',(0.,0.,2.));
#600=CARTESIAN_POINT('Origin',(0.,0.,2.));
#601=CARTESIAN_POINT('Origin',(0.,0.,2.));
#602=CARTESIAN_POINT('Origin',(0.,0.,2.));
#603=CARTESIAN_POINT('Origin',(0.,0.,2.));
#604=CARTESIAN_POINT('Origin',(0.,0.,2.));
#605=CARTESIAN_POINT('Origin',(0.,0.,2.));
#606=CARTESIAN_POINT('Origin',(0.,0.,2.));
#607=CARTESIAN_POINT('Origin',(0.,0.,2.));
#608=CARTESIAN_POINT('Origin',(0.,0.,15.));
#609=UNCERTAINTY_MEASURE_WITH_UNIT(LENGTH_MEASURE(0.01),#613,
'DISTANCE_ACCURACY_VALUE',
'Maximum model space distance between geometric entities at asserted c
onnectivities');
#610=UNCERTAINTY_MEASURE_WITH_UNIT(LENGTH_MEASURE(0.01),#613,
'DISTANCE_ACCURACY_VALUE',
'Maximum model space distance between geometric entities at asserted c
onnectivities');
#611=(
GEOMETRIC_REPRESENTATION_CONTEXT(3)
GLOBAL_UNCERTAINTY_ASSIGNED_CONTEXT((#609))
GLOBAL_UNIT_ASSIGNED_CONTEXT((#613,#615,#616))
REPRESENTATION_CONTEXT('','3D')
);
#612=(
GEOMETRIC_REPRESENTATION_CONTEXT(3)
GLOBAL_UNCERTAINTY_ASSIGNED_CONTEXT((#610))
GLOBAL_UNIT_ASSIGNED_CONTEXT((#613,#615,#616))
REPRESENTATION_CONTEXT('','3D')
);
#613=(
LENGTH_UNIT()
NAMED_UNIT(*)
SI_UNIT(.MILLI.,.METRE.)
);
#614=(
LENGTH_UNIT()
NAMED_UNIT(*)
SI_UNIT($,.METRE.)
);
#615=(
NAMED_UNIT(*)
PLANE_ANGLE_UNIT()
SI_UNIT($,.RADIAN.)
);
#616=(
NAMED_UNIT(*)
SI_UNIT($,.STERADIAN.)
SOLID_ANGLE_UNIT()
);
#617=SHAPE_DEFINITION_REPRESENTATION(#618,#619);
#618=PRODUCT_DEFINITION_SHAPE('',$,#621);
#619=SHAPE_REPRESENTATION('',(#342),#611);
#620=PRODUCT_DEFINITION_CONTEXT('part definition',#625,'design');
#621=PRODUCT_DEFINITION('2025-12-12-20-03-13-731','dust cap',#622,#620);
#622=PRODUCT_DEFINITION_FORMATION('',$,#627);
#623=PRODUCT_RELATED_PRODUCT_CATEGORY('dust cap','dust cap',(#627));
#624=APPLICATION_PROTOCOL_DEFINITION('international standard',
'automotive_design',2009,#625);
#625=APPLICATION_CONTEXT(
'Core Data for Automotive Mechanical Design Process');
#626=PRODUCT_CONTEXT('part definition',#625,'mechanical');
#627=PRODUCT('2025-12-12-20-03-13-731','dust cap',$,(#626));
#628=PRESENTATION_STYLE_ASSIGNMENT((#629));
#629=SURFACE_STYLE_USAGE(.BOTH.,#630);
#630=SURFACE_SIDE_STYLE('',(#631));
#631=SURFACE_STYLE_FILL_AREA(#632);
#632=FILL_AREA_STYLE('Steel - Satin',(#633));
#633=FILL_AREA_STYLE_COLOUR('Steel - Satin',#634);
#634=COLOUR_RGB('Steel - Satin',0.627450980392157,0.627450980392157,0.627450980392157);
ENDSEC;
END-ISO-10303-21;
